<svg xmlns="http://www.w3.org/2000/svg" width="1000" height="600" viewBox="0 0 1000 600" role="img" aria-labelledby="iso-title"><title id="iso-title">Isometric GitHub contribution graph: 717 contributions</title><defs><style>.t0{fill:#26a641;stroke:#26a641}.l0{fill:#007d1a;stroke:#007d1a}.r0{fill:#11912e;stroke:#11912e}.sl0{fill:none;stroke:#007d1a;stroke-width:0.75px}.sr0{fill:none;stroke:#11912e;stroke-width:0.75px}.t1{fill:#161b22;stroke:#161b22}.l1{fill:#000000;stroke:#000000}.r1{fill:#00050c;stroke:#00050c}.sl1{fill:none;stroke:#000000;stroke-width:0.75px}.sr1{fill:none;stroke:#00050c;stroke-width:0.75px}.t2{fill:#39d353;stroke:#39d353}.l2{fill:#10a92c;stroke:#10a92c}.r2{fill:#24bd40;stroke:#24bd40}.sl2{fill:none;stroke:#10a92c;stroke-width:0.75px}.sr2{fill:none;stroke:#24bd40;stroke-width:0.75px}.t3{fill:#0e4429;stroke:#0e4429}.l3{fill:#001b00;stroke:#001b00}.r3{fill:#002f12;stroke:#002f12}.sl3{fill:none;stroke:#001b00;stroke-width:0.75px}.sr3{fill:none;stroke:#002f12;stroke-width:0.75px}.t4{fill:#006d32;stroke:#006d32}.l4{fill:#004307;stroke:#004307}.r4{fill:#00571b;stroke:#00571b}.sl4{fill:none;stroke:#004307;stroke-width:0.75px}.sr4{fill:none;stroke:#00571b;stroke-width:0.75px}path{stroke-width:.5px;stroke-linejoin:round}</style></defs><path class="l0" d="M128.9,119.5 144.9,127.5 144.9,104.5 128.9,96.5z"/><path class="r0" d="M160.9,119.5 144.9,127.5 144.9,104.5 160.9,96.5z"/><path class="t0" d="M144.9,88.5 160.9,96.5 144.9,104.5 128.9,96.5z"/><path class="l1" d="M114.1,126.9 130.1,134.9 130.1,131.9 114.1,123.9z"/><path class="r1" d="M146.1,126.9 130.1,134.9 130.1,131.9 146.1,123.9z"/><path class="t1" d="M130.1,115.9 146.1,123.9 130.1,131.9 114.1,123.9z"/><path class="l1" d="M99.2,134.3 115.2,142.3 115.2,139.3 99.2,131.3z"/><path class="r1" d="M131.2,134.3 115.2,142.3 115.2,139.3 131.2,131.3z"/><path class="t1" d="M115.2,123.3 131.2,131.3 115.2,139.3 99.2,131.3z"/><path class="sl1" d="M115.2,123.3 131.2,131.3"/><path class="l2" d="M84.4,141.8 100.4,149.8 100.4,124.8 84.4,116.8z"/><path class="r2" d="M116.4,141.8 100.4,149.8 100.4,124.8 116.4,116.8z"/><path class="t2" d="M100.4,108.8 116.4,116.8 100.4,124.8 84.4,116.8z"/><path class="l1" d="M143.9,126.9 159.9,134.9 159.9,131.9 143.9,123.9z"/><path class="r1" d="M175.9,126.9 159.9,134.9 159.9,131.9 175.9,123.9z"/><path class="t1" d="M159.9,115.9 175.9,123.9 159.9,131.9 143.9,123.9z"/><path class="l1" d="M129,134.4 145,142.4 145,139.4 129,131.4z"/><path class="r1" d="M161,134.4 145,142.4 145,139.4 161,131.4z"/><path class="t1" d="M145,123.4 161,131.4 145,139.4 129,131.4z"/><path class="sr1" d="M145,123.4 129,131.4"/><path class="sl1" d="M145,123.4 161,131.4"/><path class="l1" d="M114.2,141.8 130.2,149.8 130.2,146.8 114.2,138.8z"/><path class="r1" d="M146.2,141.8 130.2,149.8 130.2,146.8 146.2,138.8z"/><path class="t1" d="M130.2,130.8 146.2,138.8 130.2,146.8 114.2,138.8z"/><path class="sr1" d="M130.2,130.8 114.2,138.8"/><path class="sl1" d="M130.2,130.8 146.2,138.8"/><path class="l1" d="M99.3,149.2 115.3,157.2 115.3,154.2 99.3,146.2z"/><path class="r1" d="M131.3,149.2 115.3,157.2 115.3,154.2 131.3,146.2z"/><path class="t1" d="M115.3,138.2 131.3,146.2 115.3,154.2 99.3,146.2z"/><path class="sl1" d="M115.3,138.2 131.3,146.2"/><path class="l1" d="M84.4,156.6 100.4,164.6 100.4,161.6 84.4,153.6z"/><path class="r1" d="M116.4,156.6 100.4,164.6 100.4,161.6 116.4,153.6z"/><path class="t1" d="M100.4,145.6 116.4,153.6 100.4,161.6 84.4,153.6z"/><path class="sl1" d="M100.4,145.6 116.4,153.6"/><path class="l2" d="M69.6,164.1 85.6,172.1 85.6,133.1 69.6,125.1z"/><path class="r2" d="M101.6,164.1 85.6,172.1 85.6,133.1 101.6,125.1z"/><path class="t2" d="M85.6,117.1 101.6,125.1 85.6,133.1 69.6,125.1z"/><path class="l2" d="M54.7,171.5 70.7,179.5 70.7,80.5 54.7,72.5z"/><path class="r2" d="M86.7,171.5 70.7,179.5 70.7,80.5 86.7,72.5z"/><path class="t2" d="M70.7,64.5 86.7,72.5 70.7,80.5 54.7,72.5z"/><path class="l2" d="M158.8,134.4 174.8,142.4 174.8,39.4 158.8,31.4z"/><path class="r2" d="M190.8,134.4 174.8,142.4 174.8,39.4 190.8,31.4z"/><path class="t2" d="M174.8,23.4 190.8,31.4 174.8,39.4 158.8,31.4z"/><path class="l3" d="M143.9,141.8 159.9,149.8 159.9,144.8 143.9,136.8z"/><path class="r3" d="M175.9,141.8 159.9,149.8 159.9,144.8 175.9,136.8z"/><path class="t3" d="M159.9,128.8 175.9,136.8 159.9,144.8 143.9,136.8z"/><path class="l2" d="M129.1,149.3 145.1,157.3 145.1,125.3 129.1,117.3z"/><path class="r2" d="M161.1,149.3 145.1,157.3 145.1,125.3 161.1,117.3z"/><path class="t2" d="M145.1,109.3 161.1,117.3 145.1,125.3 129.1,117.3z"/><path class="l1" d="M114.2,156.7 130.2,164.7 130.2,161.7 114.2,153.7z"/><path class="r1" d="M146.2,156.7 130.2,164.7 130.2,161.7 146.2,153.7z"/><path class="t1" d="M130.2,145.7 146.2,153.7 130.2,161.7 114.2,153.7z"/><path class="sr1" d="M130.2,145.7 114.2,153.7"/><path class="l1" d="M99.4,164.1 115.4,172.1 115.4,169.1 99.4,161.1z"/><path class="r1" d="M131.4,164.1 115.4,172.1 115.4,169.1 131.4,161.1z"/><path class="t1" d="M115.4,153.1 131.4,161.1 115.4,169.1 99.4,161.1z"/><path class="sr1" d="M115.4,153.1 99.4,161.1"/><path class="sl1" d="M115.4,153.1 131.4,161.1"/><path class="l1" d="M84.5,171.5 100.5,179.5 100.5,176.5 84.5,168.5z"/><path class="r1" d="M116.5,171.5 100.5,179.5 100.5,176.5 116.5,168.5z"/><path class="t1" d="M100.5,160.5 116.5,168.5 100.5,176.5 84.5,168.5z"/><path class="sl1" d="M100.5,160.5 116.5,168.5"/><path class="l1" d="M69.7,179 85.7,187 85.7,184 69.7,176z"/><path class="r1" d="M101.7,179 85.7,187 85.7,184 101.7,176z"/><path class="t1" d="M85.7,168 101.7,176 85.7,184 69.7,176z"/><path class="sl1" d="M85.7,168 101.7,176"/><path class="l1" d="M173.7,141.9 189.7,149.9 189.7,146.9 173.7,138.9z"/><path class="r1" d="M205.7,141.9 189.7,149.9 189.7,146.9 205.7,138.9z"/><path class="t1" d="M189.7,130.9 205.7,138.9 189.7,146.9 173.7,138.9z"/><path class="l4" d="M158.9,149.3 174.9,157.3 174.9,141.3 158.9,133.3z"/><path class="r4" d="M190.9,149.3 174.9,157.3 174.9,141.3 190.9,133.3z"/><path class="t4" d="M174.9,125.3 190.9,133.3 174.9,141.3 158.9,133.3z"/><path class="l3" d="M144,156.7 160,164.7 160,157.7 144,149.7z"/><path class="r3" d="M176,156.7 160,164.7 160,157.7 176,149.7z"/><path class="t3" d="M160,141.7 176,149.7 160,157.7 144,149.7z"/><path class="l1" d="M129.2,164.2 145.2,172.2 145.2,169.2 129.2,161.2z"/><path class="r1" d="M161.2,164.2 145.2,172.2 145.2,169.2 161.2,161.2z"/><path class="t1" d="M145.2,153.2 161.2,161.2 145.2,169.2 129.2,161.2z"/><path class="sr1" d="M145.2,153.2 129.2,161.2"/><path class="l4" d="M114.3,171.6 130.3,179.6 130.3,167.6 114.3,159.6z"/><path class="r4" d="M146.3,171.6 130.3,179.6 130.3,167.6 146.3,159.6z"/><path class="t4" d="M130.3,151.6 146.3,159.6 130.3,167.6 114.3,159.6z"/><path class="l1" d="M99.4,179 115.4,187 115.4,184 99.4,176z"/><path class="r1" d="M131.4,179 115.4,187 115.4,184 131.4,176z"/><path class="t1" d="M115.4,168 131.4,176 115.4,184 99.4,176z"/><path class="sr1" d="M115.4,168 99.4,176"/><path class="l1" d="M84.6,186.4 100.6,194.4 100.6,191.4 84.6,183.4z"/><path class="r1" d="M116.6,186.4 100.6,194.4 100.6,191.4 116.6,183.4z"/><path class="t1" d="M100.6,175.4 116.6,183.4 100.6,191.4 84.6,183.4z"/><path class="sr1" d="M100.6,175.4 84.6,183.4"/><path class="sl1" d="M100.6,175.4 116.6,183.4"/><path class="l3" d="M188.7,149.3 204.7,157.3 204.7,152.3 188.7,144.3z"/><path class="r3" d="M220.7,149.3 204.7,157.3 204.7,152.3 220.7,144.3z"/><path class="t3" d="M204.7,136.3 220.7,144.3 204.7,152.3 188.7,144.3z"/><path class="l3" d="M173.8,156.8 189.8,164.8 189.8,159.8 173.8,151.8z"/><path class="r3" d="M205.8,156.8 189.8,164.8 189.8,159.8 205.8,151.8z"/><path class="t3" d="M189.8,143.8 205.8,151.8 189.8,159.8 173.8,151.8z"/><path class="sl3" d="M189.8,143.8 205.8,151.8"/><path class="l1" d="M159,164.2 175,172.2 175,169.2 159,161.2z"/><path class="r1" d="M191,164.2 175,172.2 175,169.2 191,161.2z"/><path class="t1" d="M175,153.2 191,161.2 175,169.2 159,161.2z"/><path class="l1" d="M144.1,171.6 160.1,179.6 160.1,176.6 144.1,168.6z"/><path class="r1" d="M176.1,171.6 160.1,179.6 160.1,176.6 176.1,168.6z"/><path class="t1" d="M160.1,160.6 176.1,168.6 160.1,176.6 144.1,168.6z"/><path class="sr1" d="M160.1,160.6 144.1,168.6"/><path class="sl1" d="M160.1,160.6 176.1,168.6"/><path class="l3" d="M129.2,179 145.2,187 145.2,177 129.2,169z"/><path class="r3" d="M161.2,179 145.2,187 145.2,177 161.2,169z"/><path class="t3" d="M145.2,161 161.2,169 145.2,177 129.2,169z"/><path class="l3" d="M114.4,186.5 130.4,194.5 130.4,187.5 114.4,179.5z"/><path class="r3" d="M146.4,186.5 130.4,194.5 130.4,187.5 146.4,179.5z"/><path class="t3" d="M130.4,171.5 146.4,179.5 130.4,187.5 114.4,179.5z"/><path class="l3" d="M99.5,193.9 115.5,201.9 115.5,194.9 99.5,186.9z"/><path class="r3" d="M131.5,193.9 115.5,201.9 115.5,194.9 131.5,186.9z"/><path class="t3" d="M115.5,178.9 131.5,186.9 115.5,194.9 99.5,186.9z"/><path class="sl3" d="M115.5,178.9 131.5,186.9"/><path class="l3" d="M203.6,156.8 219.6,164.8 219.6,154.8 203.6,146.8z"/><path class="r3" d="M235.6,156.8 219.6,164.8 219.6,154.8 235.6,146.8z"/><path class="t3" d="M219.6,138.8 235.6,146.8 219.6,154.8 203.6,146.8z"/><path class="l1" d="M188.7,164.2 204.7,172.2 204.7,169.2 188.7,161.2z"/><path class="r1" d="M220.7,164.2 204.7,172.2 204.7,169.2 220.7,161.2z"/><path class="t1" d="M204.7,153.2 220.7,161.2 204.7,169.2 188.7,161.2z"/><path class="l1" d="M173.9,171.7 189.9,179.7 189.9,176.7 173.9,168.7z"/><path class="r1" d="M205.9,171.7 189.9,179.7 189.9,176.7 205.9,168.7z"/><path class="t1" d="M189.9,160.7 205.9,168.7 189.9,176.7 173.9,168.7z"/><path class="sr1" d="M189.9,160.7 173.9,168.7"/><path class="sl1" d="M189.9,160.7 205.9,168.7"/><path class="l1" d="M159,179.1 175,187.1 175,184.1 159,176.1z"/><path class="r1" d="M191,179.1 175,187.1 175,184.1 191,176.1z"/><path class="t1" d="M175,168.1 191,176.1 175,184.1 159,176.1z"/><path class="sr1" d="M175,168.1 159,176.1"/><path class="sl1" d="M175,168.1 191,176.1"/><path class="l3" d="M144.2,186.5 160.2,194.5 160.2,189.5 144.2,181.5z"/><path class="r3" d="M176.2,186.5 160.2,194.5 160.2,189.5 176.2,181.5z"/><path class="t3" d="M160.2,173.5 176.2,181.5 160.2,189.5 144.2,181.5z"/><path class="l1" d="M129.3,193.9 145.3,201.9 145.3,198.9 129.3,190.9z"/><path class="r1" d="M161.3,193.9 145.3,201.9 145.3,198.9 161.3,190.9z"/><path class="t1" d="M145.3,182.9 161.3,190.9 145.3,198.9 129.3,190.9z"/><path class="l1" d="M114.5,201.4 130.5,209.4 130.5,206.4 114.5,198.4z"/><path class="r1" d="M146.5,201.4 130.5,209.4 130.5,206.4 146.5,198.4z"/><path class="t1" d="M130.5,190.4 146.5,198.4 130.5,206.4 114.5,198.4z"/><path class="sl1" d="M130.5,190.4 146.5,198.4"/><path class="l1" d="M218.5,164.3 234.5,172.3 234.5,169.3 218.5,161.3z"/><path class="r1" d="M250.5,164.3 234.5,172.3 234.5,169.3 250.5,161.3z"/><path class="t1" d="M234.5,153.3 250.5,161.3 234.5,169.3 218.5,161.3z"/><path class="l1" d="M203.7,171.7 219.7,179.7 219.7,176.7 203.7,168.7z"/><path class="r1" d="M235.7,171.7 219.7,179.7 219.7,176.7 235.7,168.7z"/><path class="t1" d="M219.7,160.7 235.7,168.7 219.7,176.7 203.7,168.7z"/><path class="sr1" d="M219.7,160.7 203.7,168.7"/><path class="sl1" d="M219.7,160.7 235.7,168.7"/><path class="l1" d="M188.8,179.1 204.8,187.1 204.8,184.1 188.8,176.1z"/><path class="r1" d="M220.8,179.1 204.8,187.1 204.8,184.1 220.8,176.1z"/><path class="t1" d="M204.8,168.1 220.8,176.1 204.8,184.1 188.8,176.1z"/><path class="sr1" d="M204.8,168.1 188.8,176.1"/><path class="sl1" d="M204.8,168.1 220.8,176.1"/><path class="l1" d="M174,186.6 190,194.6 190,191.6 174,183.6z"/><path class="r1" d="M206,186.6 190,194.6 190,191.6 206,183.6z"/><path class="t1" d="M190,175.6 206,183.6 190,191.6 174,183.6z"/><path class="sr1" d="M190,175.6 174,183.6"/><path class="sl1" d="M190,175.6 206,183.6"/><path class="l1" d="M159.1,194 175.1,202 175.1,199 159.1,191z"/><path class="r1" d="M191.1,194 175.1,202 175.1,199 191.1,191z"/><path class="t1" d="M175.1,183 191.1,191 175.1,199 159.1,191z"/><path class="sl1" d="M175.1,183 191.1,191"/><path class="l1" d="M144.2,201.4 160.2,209.4 160.2,206.4 144.2,198.4z"/><path class="r1" d="M176.2,201.4 160.2,209.4 160.2,206.4 176.2,198.4z"/><path class="t1" d="M160.2,190.4 176.2,198.4 160.2,206.4 144.2,198.4z"/><path class="sr1" d="M160.2,190.4 144.2,198.4"/><path class="sl1" d="M160.2,190.4 176.2,198.4"/><path class="l1" d="M129.4,208.8 145.4,216.8 145.4,213.8 129.4,205.8z"/><path class="r1" d="M161.4,208.8 145.4,216.8 145.4,213.8 161.4,205.8z"/><path class="t1" d="M145.4,197.8 161.4,205.8 145.4,213.8 129.4,205.8z"/><path class="sr1" d="M145.4,197.8 129.4,205.8"/><path class="sl1" d="M145.4,197.8 161.4,205.8"/><path class="l1" d="M233.5,171.7 249.5,179.7 249.5,176.7 233.5,168.7z"/><path class="r1" d="M265.5,171.7 249.5,179.7 249.5,176.7 265.5,168.7z"/><path class="t1" d="M249.5,160.7 265.5,168.7 249.5,176.7 233.5,168.7z"/><path class="sr1" d="M249.5,160.7 233.5,168.7"/><path class="l1" d="M218.6,179.2 234.6,187.2 234.6,184.2 218.6,176.2z"/><path class="r1" d="M250.6,179.2 234.6,187.2 234.6,184.2 250.6,176.2z"/><path class="t1" d="M234.6,168.2 250.6,176.2 234.6,184.2 218.6,176.2z"/><path class="sr1" d="M234.6,168.2 218.6,176.2"/><path class="sl1" d="M234.6,168.2 250.6,176.2"/><path class="l1" d="M203.8,186.6 219.8,194.6 219.8,191.6 203.8,183.6z"/><path class="r1" d="M235.8,186.6 219.8,194.6 219.8,191.6 235.8,183.6z"/><path class="t1" d="M219.8,175.6 235.8,183.6 219.8,191.6 203.8,183.6z"/><path class="sr1" d="M219.8,175.6 203.8,183.6"/><path class="sl1" d="M219.8,175.6 235.8,183.6"/><path class="l1" d="M188.9,194 204.9,202 204.9,199 188.9,191z"/><path class="r1" d="M220.9,194 204.9,202 204.9,199 220.9,191z"/><path class="t1" d="M204.9,183 220.9,191 204.9,199 188.9,191z"/><path class="sr1" d="M204.9,183 188.9,191"/><path class="sl1" d="M204.9,183 220.9,191"/><path class="l4" d="M174,201.4 190,209.4 190,193.4 174,185.4z"/><path class="r4" d="M206,201.4 190,209.4 190,193.4 206,185.4z"/><path class="t4" d="M190,177.4 206,185.4 190,193.4 174,185.4z"/><path class="l1" d="M159.2,208.9 175.2,216.9 175.2,213.9 159.2,205.9z"/><path class="r1" d="M191.2,208.9 175.2,216.9 175.2,213.9 191.2,205.9z"/><path class="t1" d="M175.2,197.9 191.2,205.9 175.2,213.9 159.2,205.9z"/><path class="sr1" d="M175.2,197.9 159.2,205.9"/><path class="l2" d="M144.3,216.3 160.3,224.3 160.3,194.3 144.3,186.3z"/><path class="r2" d="M176.3,216.3 160.3,224.3 160.3,194.3 176.3,186.3z"/><path class="t2" d="M160.3,178.3 176.3,186.3 160.3,194.3 144.3,186.3z"/><path class="l2" d="M248.4,179.2 264.4,187.2 264.4,151.2 248.4,143.2z"/><path class="r2" d="M280.4,179.2 264.4,187.2 264.4,151.2 280.4,143.2z"/><path class="t2" d="M264.4,135.2 280.4,143.2 264.4,151.2 248.4,143.2z"/><path class="l0" d="M233.5,186.6 249.5,194.6 249.5,173.6 233.5,165.6z"/><path class="r0" d="M265.5,186.6 249.5,194.6 249.5,173.6 265.5,165.6z"/><path class="t0" d="M249.5,157.6 265.5,165.6 249.5,173.6 233.5,165.6z"/><path class="l4" d="M218.7,194.1 234.7,202.1 234.7,186.1 218.7,178.1z"/><path class="r4" d="M250.7,194.1 234.7,202.1 234.7,186.1 250.7,178.1z"/><path class="t4" d="M234.7,170.1 250.7,178.1 234.7,186.1 218.7,178.1z"/><path class="l1" d="M203.8,201.5 219.8,209.5 219.8,206.5 203.8,198.5z"/><path class="r1" d="M235.8,201.5 219.8,209.5 219.8,206.5 235.8,198.5z"/><path class="t1" d="M219.8,190.5 235.8,198.5 219.8,206.5 203.8,198.5z"/><path class="sr1" d="M219.8,190.5 203.8,198.5"/><path class="l4" d="M189,208.9 205,216.9 205,200.9 189,192.9z"/><path class="r4" d="M221,208.9 205,216.9 205,200.9 221,192.9z"/><path class="t4" d="M205,184.9 221,192.9 205,200.9 189,192.9z"/><path class="sr4" d="M205,184.9 189,192.9"/><path class="l1" d="M174.1,216.3 190.1,224.3 190.1,221.3 174.1,213.3z"/><path class="r1" d="M206.1,216.3 190.1,224.3 190.1,221.3 206.1,213.3z"/><path class="t1" d="M190.1,205.3 206.1,213.3 190.1,221.3 174.1,213.3z"/><path class="sr1" d="M190.1,205.3 174.1,213.3"/><path class="l2" d="M159.3,223.8 175.3,231.8 175.3,201.8 159.3,193.8z"/><path class="r2" d="M191.3,223.8 175.3,231.8 175.3,201.8 191.3,193.8z"/><path class="t2" d="M175.3,185.8 191.3,193.8 175.3,201.8 159.3,193.8z"/><path class="sr2" d="M175.3,185.8 159.3,193.8"/><path class="l4" d="M263.3,186.7 279.3,194.7 279.3,182.7 263.3,174.7z"/><path class="r4" d="M295.3,186.7 279.3,194.7 279.3,182.7 295.3,174.7z"/><path class="t4" d="M279.3,166.7 295.3,174.7 279.3,182.7 263.3,174.7z"/><path class="l1" d="M248.5,194.1 264.5,202.1 264.5,199.1 248.5,191.1z"/><path class="r1" d="M280.5,194.1 264.5,202.1 264.5,199.1 280.5,191.1z"/><path class="t1" d="M264.5,183.1 280.5,191.1 264.5,199.1 248.5,191.1z"/><path class="l1" d="M233.6,201.5 249.6,209.5 249.6,206.5 233.6,198.5z"/><path class="r1" d="M265.6,201.5 249.6,209.5 249.6,206.5 265.6,198.5z"/><path class="t1" d="M249.6,190.5 265.6,198.5 249.6,206.5 233.6,198.5z"/><path class="sl1" d="M249.6,190.5 265.6,198.5"/><path class="l4" d="M218.8,209 234.8,217 234.8,205 218.8,197z"/><path class="r4" d="M250.8,209 234.8,217 234.8,205 250.8,197z"/><path class="t4" d="M234.8,189 250.8,197 234.8,205 218.8,197z"/><path class="l3" d="M203.9,216.4 219.9,224.4 219.9,217.4 203.9,209.4z"/><path class="r3" d="M235.9,216.4 219.9,224.4 219.9,217.4 235.9,209.4z"/><path class="t3" d="M219.9,201.4 235.9,209.4 219.9,217.4 203.9,209.4z"/><path class="l3" d="M189,223.8 205,231.8 205,224.8 189,216.8z"/><path class="r3" d="M221,223.8 205,231.8 205,224.8 221,216.8z"/><path class="t3" d="M205,208.8 221,216.8 205,224.8 189,216.8z"/><path class="sl3" d="M205,208.8 221,216.8"/><path class="l4" d="M174.2,231.2 190.2,239.2 190.2,223.2 174.2,215.2z"/><path class="r4" d="M206.2,231.2 190.2,239.2 190.2,223.2 206.2,215.2z"/><path class="t4" d="M190.2,207.2 206.2,215.2 190.2,223.2 174.2,215.2z"/><path class="l1" d="M278.3,194.1 294.3,202.1 294.3,199.1 278.3,191.1z"/><path class="r1" d="M310.3,194.1 294.3,202.1 294.3,199.1 310.3,191.1z"/><path class="t1" d="M294.3,183.1 310.3,191.1 294.3,199.1 278.3,191.1z"/><path class="l1" d="M263.4,201.6 279.4,209.6 279.4,206.6 263.4,198.6z"/><path class="r1" d="M295.4,201.6 279.4,209.6 279.4,206.6 295.4,198.6z"/><path class="t1" d="M279.4,190.6 295.4,198.6 279.4,206.6 263.4,198.6z"/><path class="sr1" d="M279.4,190.6 263.4,198.6"/><path class="sl1" d="M279.4,190.6 295.4,198.6"/><path class="l1" d="M248.6,209 264.6,217 264.6,214 248.6,206z"/><path class="r1" d="M280.6,209 264.6,217 264.6,214 280.6,206z"/><path class="t1" d="M264.6,198 280.6,206 264.6,214 248.6,206z"/><path class="sr1" d="M264.6,198 248.6,206"/><path class="sl1" d="M264.6,198 280.6,206"/><path class="l3" d="M233.7,216.4 249.7,224.4 249.7,219.4 233.7,211.4z"/><path class="r3" d="M265.7,216.4 249.7,224.4 249.7,219.4 265.7,211.4z"/><path class="t3" d="M249.7,203.4 265.7,211.4 249.7,219.4 233.7,211.4z"/><path class="l1" d="M218.8,223.8 234.8,231.8 234.8,228.8 218.8,220.8z"/><path class="r1" d="M250.8,223.8 234.8,231.8 234.8,228.8 250.8,220.8z"/><path class="t1" d="M234.8,212.8 250.8,220.8 234.8,228.8 218.8,220.8z"/><path class="l1" d="M204,231.3 220,239.3 220,236.3 204,228.3z"/><path class="r1" d="M236,231.3 220,239.3 220,236.3 236,228.3z"/><path class="t1" d="M220,220.3 236,228.3 220,236.3 204,228.3z"/><path class="sl1" d="M220,220.3 236,228.3"/><path class="l1" d="M189.1,238.7 205.1,246.7 205.1,243.7 189.1,235.7z"/><path class="r1" d="M221.1,238.7 205.1,246.7 205.1,243.7 221.1,235.7z"/><path class="t1" d="M205.1,227.7 221.1,235.7 205.1,243.7 189.1,235.7z"/><path class="sl1" d="M205.1,227.7 221.1,235.7"/><path class="l3" d="M293.2,201.6 309.2,209.6 309.2,202.6 293.2,194.6z"/><path class="r3" d="M325.2,201.6 309.2,209.6 309.2,202.6 325.2,194.6z"/><path class="t3" d="M309.2,186.6 325.2,194.6 309.2,202.6 293.2,194.6z"/><path class="l4" d="M278.3,209 294.3,217 294.3,205 278.3,197z"/><path class="r4" d="M310.3,209 294.3,217 294.3,205 310.3,197z"/><path class="t4" d="M294.3,189 310.3,197 294.3,205 278.3,197z"/><path class="l4" d="M263.5,216.5 279.5,224.5 279.5,208.5 263.5,200.5z"/><path class="r4" d="M295.5,216.5 279.5,224.5 279.5,208.5 295.5,200.5z"/><path class="t4" d="M279.5,192.5 295.5,200.5 279.5,208.5 263.5,200.5z"/><path class="l0" d="M248.6,223.9 264.6,231.9 264.6,210.9 248.6,202.9z"/><path class="r0" d="M280.6,223.9 264.6,231.9 264.6,210.9 280.6,202.9z"/><path class="t0" d="M264.6,194.9 280.6,202.9 264.6,210.9 248.6,202.9z"/><path class="l4" d="M233.8,231.3 249.8,239.3 249.8,223.3 233.8,215.3z"/><path class="r4" d="M265.8,231.3 249.8,239.3 249.8,223.3 265.8,215.3z"/><path class="t4" d="M249.8,207.3 265.8,215.3 249.8,223.3 233.8,215.3z"/><path class="l1" d="M218.9,238.7 234.9,246.7 234.9,243.7 218.9,235.7z"/><path class="r1" d="M250.9,238.7 234.9,246.7 234.9,243.7 250.9,235.7z"/><path class="t1" d="M234.9,227.7 250.9,235.7 234.9,243.7 218.9,235.7z"/><path class="sr1" d="M234.9,227.7 218.9,235.7"/><path class="l1" d="M204.1,246.2 220.1,254.2 220.1,251.2 204.1,243.2z"/><path class="r1" d="M236.1,246.2 220.1,254.2 220.1,251.2 236.1,243.2z"/><path class="t1" d="M220.1,235.2 236.1,243.2 220.1,251.2 204.1,243.2z"/><path class="sr1" d="M220.1,235.2 204.1,243.2"/><path class="sl1" d="M220.1,235.2 236.1,243.2"/><path class="l2" d="M308.1,209.1 324.1,217.1 324.1,192.1 308.1,184.1z"/><path class="r2" d="M340.1,209.1 324.1,217.1 324.1,192.1 340.1,184.1z"/><path class="t2" d="M324.1,176.1 340.1,184.1 324.1,192.1 308.1,184.1z"/><path class="l4" d="M293.3,216.5 309.3,224.5 309.3,212.5 293.3,204.5z"/><path class="r4" d="M325.3,216.5 309.3,224.5 309.3,212.5 325.3,204.5z"/><path class="t4" d="M309.3,196.5 325.3,204.5 309.3,212.5 293.3,204.5z"/><path class="sr4" d="M309.3,196.5 293.3,204.5"/><path class="l2" d="M278.4,223.9 294.4,231.9 294.4,201.9 278.4,193.9z"/><path class="r2" d="M310.4,223.9 294.4,231.9 294.4,201.9 310.4,193.9z"/><path class="t2" d="M294.4,185.9 310.4,193.9 294.4,201.9 278.4,193.9z"/><path class="l4" d="M263.6,231.4 279.6,239.4 279.6,227.4 263.6,219.4z"/><path class="r4" d="M295.6,231.4 279.6,239.4 279.6,227.4 295.6,219.4z"/><path class="t4" d="M279.6,211.4 295.6,219.4 279.6,227.4 263.6,219.4z"/><path class="l3" d="M248.7,238.8 264.7,246.8 264.7,239.8 248.7,231.8z"/><path class="r3" d="M280.7,238.8 264.7,246.8 264.7,239.8 280.7,231.8z"/><path class="t3" d="M264.7,223.8 280.7,231.8 264.7,239.8 248.7,231.8z"/><path class="l1" d="M233.8,246.2 249.8,254.2 249.8,251.2 233.8,243.2z"/><path class="r1" d="M265.8,246.2 249.8,254.2 249.8,251.2 265.8,243.2z"/><path class="t1" d="M249.8,235.2 265.8,243.2 249.8,251.2 233.8,243.2z"/><path class="sr1" d="M249.8,235.2 233.8,243.2"/><path class="l1" d="M219,253.6 235,261.6 235,258.6 219,250.6z"/><path class="r1" d="M251,253.6 235,261.6 235,258.6 251,250.6z"/><path class="t1" d="M235,242.6 251,250.6 235,258.6 219,250.6z"/><path class="sr1" d="M235,242.6 219,250.6"/><path class="sl1" d="M235,242.6 251,250.6"/><path class="l1" d="M323.1,216.5 339.1,224.5 339.1,221.5 323.1,213.5z"/><path class="r1" d="M355.1,216.5 339.1,224.5 339.1,221.5 355.1,213.5z"/><path class="t1" d="M339.1,205.5 355.1,213.5 339.1,221.5 323.1,213.5z"/><path class="l1" d="M308.2,224 324.2,232 324.2,229 308.2,221z"/><path class="r1" d="M340.2,224 324.2,232 324.2,229 340.2,221z"/><path class="t1" d="M324.2,213 340.2,221 324.2,229 308.2,221z"/><path class="sl1" d="M324.2,213 340.2,221"/><path class="l1" d="M293.4,231.4 309.4,239.4 309.4,236.4 293.4,228.4z"/><path class="r1" d="M325.4,231.4 309.4,239.4 309.4,236.4 325.4,228.4z"/><path class="t1" d="M309.4,220.4 325.4,228.4 309.4,236.4 293.4,228.4z"/><path class="sl1" d="M309.4,220.4 325.4,228.4"/><path class="l4" d="M278.5,238.8 294.5,246.8 294.5,230.8 278.5,222.8z"/><path class="r4" d="M310.5,238.8 294.5,246.8 294.5,230.8 310.5,222.8z"/><path class="t4" d="M294.5,214.8 310.5,222.8 294.5,230.8 278.5,222.8z"/><path class="l4" d="M263.6,246.2 279.6,254.2 279.6,242.2 263.6,234.2z"/><path class="r4" d="M295.6,246.2 279.6,254.2 279.6,242.2 295.6,234.2z"/><path class="t4" d="M279.6,226.2 295.6,234.2 279.6,242.2 263.6,234.2z"/><path class="l0" d="M248.8,253.7 264.8,261.7 264.8,240.7 248.8,232.7z"/><path class="r0" d="M280.8,253.7 264.8,261.7 264.8,240.7 280.8,232.7z"/><path class="t0" d="M264.8,224.7 280.8,232.7 264.8,240.7 248.8,232.7z"/><path class="l1" d="M233.9,261.1 249.9,269.1 249.9,266.1 233.9,258.1z"/><path class="r1" d="M265.9,261.1 249.9,269.1 249.9,266.1 265.9,258.1z"/><path class="t1" d="M249.9,250.1 265.9,258.1 249.9,266.1 233.9,258.1z"/><path class="sr1" d="M249.9,250.1 233.9,258.1"/><path class="l1" d="M338,224 354,232 354,229 338,221z"/><path class="r1" d="M370,224 354,232 354,229 370,221z"/><path class="t1" d="M354,213 370,221 354,229 338,221z"/><path class="sr1" d="M354,213 338,221"/><path class="l3" d="M323.1,231.4 339.1,239.4 339.1,232.4 323.1,224.4z"/><path class="r3" d="M355.1,231.4 339.1,239.4 339.1,232.4 355.1,224.4z"/><path class="t3" d="M339.1,216.4 355.1,224.4 339.1,232.4 323.1,224.4z"/><path class="l1" d="M308.3,238.9 324.3,246.9 324.3,243.9 308.3,235.9z"/><path class="r1" d="M340.3,238.9 324.3,246.9 324.3,243.9 340.3,235.9z"/><path class="t1" d="M324.3,227.9 340.3,235.9 324.3,243.9 308.3,235.9z"/><path class="sr1" d="M324.3,227.9 308.3,235.9"/><path class="l1" d="M293.4,246.3 309.4,254.3 309.4,251.3 293.4,243.3z"/><path class="r1" d="M325.4,246.3 309.4,254.3 309.4,251.3 325.4,243.3z"/><path class="t1" d="M309.4,235.3 325.4,243.3 309.4,251.3 293.4,243.3z"/><path class="sl1" d="M309.4,235.3 325.4,243.3"/><path class="l1" d="M278.6,253.7 294.6,261.7 294.6,258.7 278.6,250.7z"/><path class="r1" d="M310.6,253.7 294.6,261.7 294.6,258.7 310.6,250.7z"/><path class="t1" d="M294.6,242.7 310.6,250.7 294.6,258.7 278.6,250.7z"/><path class="sl1" d="M294.6,242.7 310.6,250.7"/><path class="l1" d="M263.7,261.1 279.7,269.1 279.7,266.1 263.7,258.1z"/><path class="r1" d="M295.7,261.1 279.7,269.1 279.7,266.1 295.7,258.1z"/><path class="t1" d="M279.7,250.1 295.7,258.1 279.7,266.1 263.7,258.1z"/><path class="sl1" d="M279.7,250.1 295.7,258.1"/><path class="l1" d="M248.9,268.6 264.9,276.6 264.9,273.6 248.9,265.6z"/><path class="r1" d="M280.9,268.6 264.9,276.6 264.9,273.6 280.9,265.6z"/><path class="t1" d="M264.9,257.6 280.9,265.6 264.9,273.6 248.9,265.6z"/><path class="sr1" d="M264.9,257.6 248.9,265.6"/><path class="sl1" d="M264.9,257.6 280.9,265.6"/><path class="l1" d="M352.9,231.5 368.9,239.5 368.9,236.5 352.9,228.5z"/><path class="r1" d="M384.9,231.5 368.9,239.5 368.9,236.5 384.9,228.5z"/><path class="t1" d="M368.9,220.5 384.9,228.5 368.9,236.5 352.9,228.5z"/><path class="sr1" d="M368.9,220.5 352.9,228.5"/><path class="l1" d="M338.1,238.9 354.1,246.9 354.1,243.9 338.1,235.9z"/><path class="r1" d="M370.1,238.9 354.1,246.9 354.1,243.9 370.1,235.9z"/><path class="t1" d="M354.1,227.9 370.1,235.9 354.1,243.9 338.1,235.9z"/><path class="sl1" d="M354.1,227.9 370.1,235.9"/><path class="l3" d="M323.2,246.3 339.2,254.3 339.2,244.3 323.2,236.3z"/><path class="r3" d="M355.2,246.3 339.2,254.3 339.2,244.3 355.2,236.3z"/><path class="t3" d="M339.2,228.3 355.2,236.3 339.2,244.3 323.2,236.3z"/><path class="l1" d="M308.4,253.8 324.4,261.8 324.4,258.8 308.4,250.8z"/><path class="r1" d="M340.4,253.8 324.4,261.8 324.4,258.8 340.4,250.8z"/><path class="t1" d="M324.4,242.8 340.4,250.8 324.4,258.8 308.4,250.8z"/><path class="sr1" d="M324.4,242.8 308.4,250.8"/><path class="l1" d="M293.5,261.2 309.5,269.2 309.5,266.2 293.5,258.2z"/><path class="r1" d="M325.5,261.2 309.5,269.2 309.5,266.2 325.5,258.2z"/><path class="t1" d="M309.5,250.2 325.5,258.2 309.5,266.2 293.5,258.2z"/><path class="sr1" d="M309.5,250.2 293.5,258.2"/><path class="sl1" d="M309.5,250.2 325.5,258.2"/><path class="l1" d="M278.6,268.6 294.6,276.6 294.6,273.6 278.6,265.6z"/><path class="r1" d="M310.6,268.6 294.6,276.6 294.6,273.6 310.6,265.6z"/><path class="t1" d="M294.6,257.6 310.6,265.6 294.6,273.6 278.6,265.6z"/><path class="sr1" d="M294.6,257.6 278.6,265.6"/><path class="sl1" d="M294.6,257.6 310.6,265.6"/><path class="l2" d="M263.8,276 279.8,284 279.8,259 263.8,251z"/><path class="r2" d="M295.8,276 279.8,284 279.8,259 295.8,251z"/><path class="t2" d="M279.8,243 295.8,251 279.8,259 263.8,251z"/><path class="l1" d="M367.9,238.9 383.9,246.9 383.9,243.9 367.9,235.9z"/><path class="r1" d="M399.9,238.9 383.9,246.9 383.9,243.9 399.9,235.9z"/><path class="t1" d="M383.9,227.9 399.9,235.9 383.9,243.9 367.9,235.9z"/><path class="sr1" d="M383.9,227.9 367.9,235.9"/><path class="l1" d="M353,246.4 369,254.4 369,251.4 353,243.4z"/><path class="r1" d="M385,246.4 369,254.4 369,251.4 385,243.4z"/><path class="t1" d="M369,235.4 385,243.4 369,251.4 353,243.4z"/><path class="sr1" d="M369,235.4 353,243.4"/><path class="sl1" d="M369,235.4 385,243.4"/><path class="l1" d="M338.2,253.8 354.2,261.8 354.2,258.8 338.2,250.8z"/><path class="r1" d="M370.2,253.8 354.2,261.8 354.2,258.8 370.2,250.8z"/><path class="t1" d="M354.2,242.8 370.2,250.8 354.2,258.8 338.2,250.8z"/><path class="sl1" d="M354.2,242.8 370.2,250.8"/><path class="l0" d="M323.3,261.2 339.3,269.2 339.3,246.2 323.3,238.2z"/><path class="r0" d="M355.3,261.2 339.3,269.2 339.3,246.2 355.3,238.2z"/><path class="t0" d="M339.3,230.2 355.3,238.2 339.3,246.2 323.3,238.2z"/><path class="l1" d="M308.4,268.6 324.4,276.6 324.4,273.6 308.4,265.6z"/><path class="r1" d="M340.4,268.6 324.4,276.6 324.4,273.6 340.4,265.6z"/><path class="t1" d="M324.4,257.6 340.4,265.6 324.4,273.6 308.4,265.6z"/><path class="sr1" d="M324.4,257.6 308.4,265.6"/><path class="l2" d="M293.6,276.1 309.6,284.1 309.6,254.1 293.6,246.1z"/><path class="r2" d="M325.6,276.1 309.6,284.1 309.6,254.1 325.6,246.1z"/><path class="t2" d="M309.6,238.1 325.6,246.1 309.6,254.1 293.6,246.1z"/><path class="l0" d="M278.7,283.5 294.7,291.5 294.7,272.5 278.7,264.5z"/><path class="r0" d="M310.7,283.5 294.7,291.5 294.7,272.5 310.7,264.5z"/><path class="t0" d="M294.7,256.5 310.7,264.5 294.7,272.5 278.7,264.5z"/><path class="l4" d="M382.8,246.4 398.8,254.4 398.8,238.4 382.8,230.4z"/><path class="r4" d="M414.8,246.4 398.8,254.4 398.8,238.4 414.8,230.4z"/><path class="t4" d="M398.8,222.4 414.8,230.4 398.8,238.4 382.8,230.4z"/><path class="l4" d="M367.9,253.8 383.9,261.8 383.9,247.8 367.9,239.8z"/><path class="r4" d="M399.9,253.8 383.9,261.8 383.9,247.8 399.9,239.8z"/><path class="t4" d="M383.9,231.8 399.9,239.8 383.9,247.8 367.9,239.8z"/><path class="l3" d="M353.1,261.3 369.1,269.3 369.1,259.3 353.1,251.3z"/><path class="r3" d="M385.1,261.3 369.1,269.3 369.1,259.3 385.1,251.3z"/><path class="t3" d="M369.1,243.3 385.1,251.3 369.1,259.3 353.1,251.3z"/><path class="l4" d="M338.2,268.7 354.2,276.7 354.2,262.7 338.2,254.7z"/><path class="r4" d="M370.2,268.7 354.2,276.7 354.2,262.7 370.2,254.7z"/><path class="t4" d="M354.2,246.7 370.2,254.7 354.2,262.7 338.2,254.7z"/><path class="l2" d="M323.4,276.1 339.4,284.1 339.4,252.1 323.4,244.1z"/><path class="r2" d="M355.4,276.1 339.4,284.1 339.4,252.1 355.4,244.1z"/><path class="t2" d="M339.4,236.1 355.4,244.1 339.4,252.1 323.4,244.1z"/><path class="l3" d="M308.5,283.5 324.5,291.5 324.5,286.5 308.5,278.5z"/><path class="r3" d="M340.5,283.5 324.5,291.5 324.5,286.5 340.5,278.5z"/><path class="t3" d="M324.5,270.5 340.5,278.5 324.5,286.5 308.5,278.5z"/><path class="l1" d="M293.7,291 309.7,299 309.7,296 293.7,288z"/><path class="r1" d="M325.7,291 309.7,299 309.7,296 325.7,288z"/><path class="t1" d="M309.7,280 325.7,288 309.7,296 293.7,288z"/><path class="l3" d="M397.7,253.9 413.7,261.9 413.7,256.9 397.7,248.9z"/><path class="r3" d="M429.7,253.9 413.7,261.9 413.7,256.9 429.7,248.9z"/><path class="t3" d="M413.7,240.9 429.7,248.9 413.7,256.9 397.7,248.9z"/><path class="l1" d="M382.9,261.3 398.9,269.3 398.9,266.3 382.9,258.3z"/><path class="r1" d="M414.9,261.3 398.9,269.3 398.9,266.3 414.9,258.3z"/><path class="t1" d="M398.9,250.3 414.9,258.3 398.9,266.3 382.9,258.3z"/><path class="l3" d="M368,268.7 384,276.7 384,271.7 368,263.7z"/><path class="r3" d="M400,268.7 384,276.7 384,271.7 400,263.7z"/><path class="t3" d="M384,255.7 400,263.7 384,271.7 368,263.7z"/><path class="l3" d="M353.2,276.2 369.2,284.2 369.2,277.2 353.2,269.2z"/><path class="r3" d="M385.2,276.2 369.2,284.2 369.2,277.2 385.2,269.2z"/><path class="t3" d="M369.2,261.2 385.2,269.2 369.2,277.2 353.2,269.2z"/><path class="l2" d="M338.3,283.6 354.3,291.6 354.3,264.6 338.3,256.6z"/><path class="r2" d="M370.3,283.6 354.3,291.6 354.3,264.6 370.3,256.6z"/><path class="t2" d="M354.3,248.6 370.3,256.6 354.3,264.6 338.3,256.6z"/><path class="l1" d="M323.4,291 339.4,299 339.4,296 323.4,288z"/><path class="r1" d="M355.4,291 339.4,299 339.4,296 355.4,288z"/><path class="t1" d="M339.4,280 355.4,288 339.4,296 323.4,288z"/><path class="l3" d="M308.6,298.4 324.6,306.4 324.6,301.4 308.6,293.4z"/><path class="r3" d="M340.6,298.4 324.6,306.4 324.6,301.4 340.6,293.4z"/><path class="t3" d="M324.6,285.4 340.6,293.4 324.6,301.4 308.6,293.4z"/><path class="l3" d="M412.7,261.3 428.7,269.3 428.7,264.3 412.7,256.3z"/><path class="r3" d="M444.7,261.3 428.7,269.3 428.7,264.3 444.7,256.3z"/><path class="t3" d="M428.7,248.3 444.7,256.3 428.7,264.3 412.7,256.3z"/><path class="sr3" d="M428.7,248.3 412.7,256.3"/><path class="l1" d="M397.8,268.8 413.8,276.8 413.8,273.8 397.8,265.8z"/><path class="r1" d="M429.8,268.8 413.8,276.8 413.8,273.8 429.8,265.8z"/><path class="t1" d="M413.8,257.8 429.8,265.8 413.8,273.8 397.8,265.8z"/><path class="sr1" d="M413.8,257.8 397.8,265.8"/><path class="l1" d="M383,276.2 399,284.2 399,281.2 383,273.2z"/><path class="r1" d="M415,276.2 399,284.2 399,281.2 415,273.2z"/><path class="t1" d="M399,265.2 415,273.2 399,281.2 383,273.2z"/><path class="sl1" d="M399,265.2 415,273.2"/><path class="l3" d="M368.1,283.6 384.1,291.6 384.1,286.6 368.1,278.6z"/><path class="r3" d="M400.1,283.6 384.1,291.6 384.1,286.6 400.1,278.6z"/><path class="t3" d="M384.1,270.6 400.1,278.6 384.1,286.6 368.1,278.6z"/><path class="l3" d="M353.2,291 369.2,299 369.2,289 353.2,281z"/><path class="r3" d="M385.2,291 369.2,299 369.2,289 385.2,281z"/><path class="t3" d="M369.2,273 385.2,281 369.2,289 353.2,281z"/><path class="l1" d="M338.4,298.5 354.4,306.5 354.4,303.5 338.4,295.5z"/><path class="r1" d="M370.4,298.5 354.4,306.5 354.4,303.5 370.4,295.5z"/><path class="t1" d="M354.4,287.5 370.4,295.5 354.4,303.5 338.4,295.5z"/><path class="sr1" d="M354.4,287.5 338.4,295.5"/><path class="l1" d="M323.5,305.9 339.5,313.9 339.5,310.9 323.5,302.9z"/><path class="r1" d="M355.5,305.9 339.5,313.9 339.5,310.9 355.5,302.9z"/><path class="t1" d="M339.5,294.9 355.5,302.9 339.5,310.9 323.5,302.9z"/><path class="sl1" d="M339.5,294.9 355.5,302.9"/><path class="l1" d="M427.6,268.8 443.6,276.8 443.6,273.8 427.6,265.8z"/><path class="r1" d="M459.6,268.8 443.6,276.8 443.6,273.8 459.6,265.8z"/><path class="t1" d="M443.6,257.8 459.6,265.8 443.6,273.8 427.6,265.8z"/><path class="l4" d="M412.7,276.2 428.7,284.2 428.7,272.2 412.7,264.2z"/><path class="r4" d="M444.7,276.2 428.7,284.2 428.7,272.2 444.7,264.2z"/><path class="t4" d="M428.7,256.2 444.7,264.2 428.7,272.2 412.7,264.2z"/><path class="l3" d="M397.9,283.7 413.9,291.7 413.9,281.7 397.9,273.7z"/><path class="r3" d="M429.9,283.7 413.9,291.7 413.9,281.7 429.9,273.7z"/><path class="t3" d="M413.9,265.7 429.9,273.7 413.9,281.7 397.9,273.7z"/><path class="l1" d="M383,291.1 399,299.1 399,296.1 383,288.1z"/><path class="r1" d="M415,291.1 399,299.1 399,296.1 415,288.1z"/><path class="t1" d="M399,280.1 415,288.1 399,296.1 383,288.1z"/><path class="l1" d="M368.2,298.5 384.2,306.5 384.2,303.5 368.2,295.5z"/><path class="r1" d="M400.2,298.5 384.2,306.5 384.2,303.5 400.2,295.5z"/><path class="t1" d="M384.2,287.5 400.2,295.5 384.2,303.5 368.2,295.5z"/><path class="sl1" d="M384.2,287.5 400.2,295.5"/><path class="l1" d="M353.3,305.9 369.3,313.9 369.3,310.9 353.3,302.9z"/><path class="r1" d="M385.3,305.9 369.3,313.9 369.3,310.9 385.3,302.9z"/><path class="t1" d="M369.3,294.9 385.3,302.9 369.3,310.9 353.3,302.9z"/><path class="sr1" d="M369.3,294.9 353.3,302.9"/><path class="sl1" d="M369.3,294.9 385.3,302.9"/><path class="l1" d="M338.5,313.4 354.5,321.4 354.5,318.4 338.5,310.4z"/><path class="r1" d="M370.5,313.4 354.5,321.4 354.5,318.4 370.5,310.4z"/><path class="t1" d="M354.5,302.4 370.5,310.4 354.5,318.4 338.5,310.4z"/><path class="sr1" d="M354.5,302.4 338.5,310.4"/><path class="sl1" d="M354.5,302.4 370.5,310.4"/><path class="l2" d="M442.5,276.3 458.5,284.3 458.5,239.3 442.5,231.3z"/><path class="r2" d="M474.5,276.3 458.5,284.3 458.5,239.3 474.5,231.3z"/><path class="t2" d="M458.5,223.3 474.5,231.3 458.5,239.3 442.5,231.3z"/><path class="l1" d="M427.7,283.7 443.7,291.7 443.7,288.7 427.7,280.7z"/><path class="r1" d="M459.7,283.7 443.7,291.7 443.7,288.7 459.7,280.7z"/><path class="t1" d="M443.7,272.7 459.7,280.7 443.7,288.7 427.7,280.7z"/><path class="l3" d="M412.8,291.1 428.8,299.1 428.8,289.1 412.8,281.1z"/><path class="r3" d="M444.8,291.1 428.8,299.1 428.8,289.1 444.8,281.1z"/><path class="t3" d="M428.8,273.1 444.8,281.1 428.8,289.1 412.8,281.1z"/><path class="sr3" d="M428.8,273.1 412.8,281.1"/><path class="l3" d="M398,298.6 414,306.6 414,301.6 398,293.6z"/><path class="r3" d="M430,298.6 414,306.6 414,301.6 430,293.6z"/><path class="t3" d="M414,285.6 430,293.6 414,301.6 398,293.6z"/><path class="l2" d="M383.1,306 399.1,314 399.1,284 383.1,276z"/><path class="r2" d="M415.1,306 399.1,314 399.1,284 415.1,276z"/><path class="t2" d="M399.1,268 415.1,276 399.1,284 383.1,276z"/><path class="l1" d="M368.2,313.4 384.2,321.4 384.2,318.4 368.2,310.4z"/><path class="r1" d="M400.2,313.4 384.2,321.4 384.2,318.4 400.2,310.4z"/><path class="t1" d="M384.2,302.4 400.2,310.4 384.2,318.4 368.2,310.4z"/><path class="sr1" d="M384.2,302.4 368.2,310.4"/><path class="l1" d="M353.4,320.8 369.4,328.8 369.4,325.8 353.4,317.8z"/><path class="r1" d="M385.4,320.8 369.4,328.8 369.4,325.8 385.4,317.8z"/><path class="t1" d="M369.4,309.8 385.4,317.8 369.4,325.8 353.4,317.8z"/><path class="sr1" d="M369.4,309.8 353.4,317.8"/><path class="sl1" d="M369.4,309.8 385.4,317.8"/><path class="l0" d="M457.5,283.7 473.5,291.7 473.5,270.7 457.5,262.7z"/><path class="r0" d="M489.5,283.7 473.5,291.7 473.5,270.7 489.5,262.7z"/><path class="t0" d="M473.5,254.7 489.5,262.7 473.5,270.7 457.5,262.7z"/><path class="l4" d="M442.6,291.2 458.6,299.2 458.6,285.2 442.6,277.2z"/><path class="r4" d="M474.6,291.2 458.6,299.2 458.6,285.2 474.6,277.2z"/><path class="t4" d="M458.6,269.2 474.6,277.2 458.6,285.2 442.6,277.2z"/><path class="l1" d="M427.8,298.6 443.8,306.6 443.8,303.6 427.8,295.6z"/><path class="r1" d="M459.8,298.6 443.8,306.6 443.8,303.6 459.8,295.6z"/><path class="t1" d="M443.8,287.6 459.8,295.6 443.8,303.6 427.8,295.6z"/><path class="l3" d="M412.9,306 428.9,314 428.9,304 412.9,296z"/><path class="r3" d="M444.9,306 428.9,314 428.9,304 444.9,296z"/><path class="t3" d="M428.9,288 444.9,296 428.9,304 412.9,296z"/><path class="l3" d="M398,313.4 414,321.4 414,314.4 398,306.4z"/><path class="r3" d="M430,313.4 414,321.4 414,314.4 430,306.4z"/><path class="t3" d="M414,298.4 430,306.4 414,314.4 398,306.4z"/><path class="l1" d="M383.2,320.9 399.2,328.9 399.2,325.9 383.2,317.9z"/><path class="r1" d="M415.2,320.9 399.2,328.9 399.2,325.9 415.2,317.9z"/><path class="t1" d="M399.2,309.9 415.2,317.9 399.2,325.9 383.2,317.9z"/><path class="sr1" d="M399.2,309.9 383.2,317.9"/><path class="l1" d="M368.3,328.3 384.3,336.3 384.3,333.3 368.3,325.3z"/><path class="r1" d="M400.3,328.3 384.3,336.3 384.3,333.3 400.3,325.3z"/><path class="t1" d="M384.3,317.3 400.3,325.3 384.3,333.3 368.3,325.3z"/><path class="sr1" d="M384.3,317.3 368.3,325.3"/><path class="sl1" d="M384.3,317.3 400.3,325.3"/><path class="l0" d="M472.4,291.2 488.4,299.2 488.4,280.2 472.4,272.2z"/><path class="r0" d="M504.4,291.2 488.4,299.2 488.4,280.2 504.4,272.2z"/><path class="t0" d="M488.4,264.2 504.4,272.2 488.4,280.2 472.4,272.2z"/><path class="l1" d="M457.5,298.6 473.5,306.6 473.5,303.6 457.5,295.6z"/><path class="r1" d="M489.5,298.6 473.5,306.6 473.5,303.6 489.5,295.6z"/><path class="t1" d="M473.5,287.6 489.5,295.6 473.5,303.6 457.5,295.6z"/><path class="l1" d="M442.7,306.1 458.7,314.1 458.7,311.1 442.7,303.1z"/><path class="r1" d="M474.7,306.1 458.7,314.1 458.7,311.1 474.7,303.1z"/><path class="t1" d="M458.7,295.1 474.7,303.1 458.7,311.1 442.7,303.1z"/><path class="sr1" d="M458.7,295.1 442.7,303.1"/><path class="sl1" d="M458.7,295.1 474.7,303.1"/><path class="l3" d="M427.8,313.5 443.8,321.5 443.8,311.5 427.8,303.5z"/><path class="r3" d="M459.8,313.5 443.8,321.5 443.8,311.5 459.8,303.5z"/><path class="t3" d="M443.8,295.5 459.8,303.5 443.8,311.5 427.8,303.5z"/><path class="sr3" d="M443.8,295.5 427.8,303.5"/><path class="l2" d="M413,320.9 429,328.9 429,301.9 413,293.9z"/><path class="r2" d="M445,320.9 429,328.9 429,301.9 445,293.9z"/><path class="t2" d="M429,285.9 445,293.9 429,301.9 413,293.9z"/><path class="l0" d="M398.1,328.3 414.1,336.3 414.1,313.3 398.1,305.3z"/><path class="r0" d="M430.1,328.3 414.1,336.3 414.1,313.3 430.1,305.3z"/><path class="t0" d="M414.1,297.3 430.1,305.3 414.1,313.3 398.1,305.3z"/><path class="l1" d="M383.3,335.8 399.3,343.8 399.3,340.8 383.3,332.8z"/><path class="r1" d="M415.3,335.8 399.3,343.8 399.3,340.8 415.3,332.8z"/><path class="t1" d="M399.3,324.8 415.3,332.8 399.3,340.8 383.3,332.8z"/><path class="sr1" d="M399.3,324.8 383.3,332.8"/><path class="l1" d="M487.3,298.7 503.3,306.7 503.3,303.7 487.3,295.7z"/><path class="r1" d="M519.3,298.7 503.3,306.7 503.3,303.7 519.3,295.7z"/><path class="t1" d="M503.3,287.7 519.3,295.7 503.3,303.7 487.3,295.7z"/><path class="l1" d="M472.5,306.1 488.5,314.1 488.5,311.1 472.5,303.1z"/><path class="r1" d="M504.5,306.1 488.5,314.1 488.5,311.1 504.5,303.1z"/><path class="t1" d="M488.5,295.1 504.5,303.1 488.5,311.1 472.5,303.1z"/><path class="sr1" d="M488.5,295.1 472.5,303.1"/><path class="sl1" d="M488.5,295.1 504.5,303.1"/><path class="l1" d="M457.6,313.5 473.6,321.5 473.6,318.5 457.6,310.5z"/><path class="r1" d="M489.6,313.5 473.6,321.5 473.6,318.5 489.6,310.5z"/><path class="t1" d="M473.6,302.5 489.6,310.5 473.6,318.5 457.6,310.5z"/><path class="sr1" d="M473.6,302.5 457.6,310.5"/><path class="sl1" d="M473.6,302.5 489.6,310.5"/><path class="l3" d="M442.8,321 458.8,329 458.8,324 442.8,316z"/><path class="r3" d="M474.8,321 458.8,329 458.8,324 474.8,316z"/><path class="t3" d="M458.8,308 474.8,316 458.8,324 442.8,316z"/><path class="l1" d="M427.9,328.4 443.9,336.4 443.9,333.4 427.9,325.4z"/><path class="r1" d="M459.9,328.4 443.9,336.4 443.9,333.4 459.9,325.4z"/><path class="t1" d="M443.9,317.4 459.9,325.4 443.9,333.4 427.9,325.4z"/><path class="l1" d="M413,335.8 429,343.8 429,340.8 413,332.8z"/><path class="r1" d="M445,335.8 429,343.8 429,340.8 445,332.8z"/><path class="t1" d="M429,324.8 445,332.8 429,340.8 413,332.8z"/><path class="sl1" d="M429,324.8 445,332.8"/><path class="l1" d="M398.2,343.2 414.2,351.2 414.2,348.2 398.2,340.2z"/><path class="r1" d="M430.2,343.2 414.2,351.2 414.2,348.2 430.2,340.2z"/><path class="t1" d="M414.2,332.2 430.2,340.2 414.2,348.2 398.2,340.2z"/><path class="sr1" d="M414.2,332.2 398.2,340.2"/><path class="sl1" d="M414.2,332.2 430.2,340.2"/><path class="l1" d="M502.3,306.1 518.3,314.1 518.3,311.1 502.3,303.1z"/><path class="r1" d="M534.3,306.1 518.3,314.1 518.3,311.1 534.3,303.1z"/><path class="t1" d="M518.3,295.1 534.3,303.1 518.3,311.1 502.3,303.1z"/><path class="sr1" d="M518.3,295.1 502.3,303.1"/><path class="l1" d="M487.4,313.6 503.4,321.6 503.4,318.6 487.4,310.6z"/><path class="r1" d="M519.4,313.6 503.4,321.6 503.4,318.6 519.4,310.6z"/><path class="t1" d="M503.4,302.6 519.4,310.6 503.4,318.6 487.4,310.6z"/><path class="sr1" d="M503.4,302.6 487.4,310.6"/><path class="sl1" d="M503.4,302.6 519.4,310.6"/><path class="l1" d="M472.6,321 488.6,329 488.6,326 472.6,318z"/><path class="r1" d="M504.6,321 488.6,329 488.6,326 504.6,318z"/><path class="t1" d="M488.6,310 504.6,318 488.6,326 472.6,318z"/><path class="sr1" d="M488.6,310 472.6,318"/><path class="sl1" d="M488.6,310 504.6,318"/><path class="l1" d="M457.7,328.4 473.7,336.4 473.7,333.4 457.7,325.4z"/><path class="r1" d="M489.7,328.4 473.7,336.4 473.7,333.4 489.7,325.4z"/><path class="t1" d="M473.7,317.4 489.7,325.4 473.7,333.4 457.7,325.4z"/><path class="sl1" d="M473.7,317.4 489.7,325.4"/><path class="l1" d="M442.8,335.8 458.8,343.8 458.8,340.8 442.8,332.8z"/><path class="r1" d="M474.8,335.8 458.8,343.8 458.8,340.8 474.8,332.8z"/><path class="t1" d="M458.8,324.8 474.8,332.8 458.8,340.8 442.8,332.8z"/><path class="sr1" d="M458.8,324.8 442.8,332.8"/><path class="sl1" d="M458.8,324.8 474.8,332.8"/><path class="l1" d="M428,343.3 444,351.3 444,348.3 428,340.3z"/><path class="r1" d="M460,343.3 444,351.3 444,348.3 460,340.3z"/><path class="t1" d="M444,332.3 460,340.3 444,348.3 428,340.3z"/><path class="sr1" d="M444,332.3 428,340.3"/><path class="sl1" d="M444,332.3 460,340.3"/><path class="l1" d="M413.1,350.7 429.1,358.7 429.1,355.7 413.1,347.7z"/><path class="r1" d="M445.1,350.7 429.1,358.7 429.1,355.7 445.1,347.7z"/><path class="t1" d="M429.1,339.7 445.1,347.7 429.1,355.7 413.1,347.7z"/><path class="sr1" d="M429.1,339.7 413.1,347.7"/><path class="sl1" d="M429.1,339.7 445.1,347.7"/><path class="l1" d="M517.2,313.6 533.2,321.6 533.2,318.6 517.2,310.6z"/><path class="r1" d="M549.2,313.6 533.2,321.6 533.2,318.6 549.2,310.6z"/><path class="t1" d="M533.2,302.6 549.2,310.6 533.2,318.6 517.2,310.6z"/><path class="sr1" d="M533.2,302.6 517.2,310.6"/><path class="l1" d="M502.3,321 518.3,329 518.3,326 502.3,318z"/><path class="r1" d="M534.3,321 518.3,329 518.3,326 534.3,318z"/><path class="t1" d="M518.3,310 534.3,318 518.3,326 502.3,318z"/><path class="sr1" d="M518.3,310 502.3,318"/><path class="sl1" d="M518.3,310 534.3,318"/><path class="l1" d="M487.5,328.5 503.5,336.5 503.5,333.5 487.5,325.5z"/><path class="r1" d="M519.5,328.5 503.5,336.5 503.5,333.5 519.5,325.5z"/><path class="t1" d="M503.5,317.5 519.5,325.5 503.5,333.5 487.5,325.5z"/><path class="sr1" d="M503.5,317.5 487.5,325.5"/><path class="sl1" d="M503.5,317.5 519.5,325.5"/><path class="l1" d="M472.6,335.9 488.6,343.9 488.6,340.9 472.6,332.9z"/><path class="r1" d="M504.6,335.9 488.6,343.9 488.6,340.9 504.6,332.9z"/><path class="t1" d="M488.6,324.9 504.6,332.9 488.6,340.9 472.6,332.9z"/><path class="sr1" d="M488.6,324.9 472.6,332.9"/><path class="sl1" d="M488.6,324.9 504.6,332.9"/><path class="l1" d="M457.8,343.3 473.8,351.3 473.8,348.3 457.8,340.3z"/><path class="r1" d="M489.8,343.3 473.8,351.3 473.8,348.3 489.8,340.3z"/><path class="t1" d="M473.8,332.3 489.8,340.3 473.8,348.3 457.8,340.3z"/><path class="sr1" d="M473.8,332.3 457.8,340.3"/><path class="sl1" d="M473.8,332.3 489.8,340.3"/><path class="l0" d="M442.9,350.7 458.9,358.7 458.9,335.7 442.9,327.7z"/><path class="r0" d="M474.9,350.7 458.9,358.7 458.9,335.7 474.9,327.7z"/><path class="t0" d="M458.9,319.7 474.9,327.7 458.9,335.7 442.9,327.7z"/><path class="l1" d="M428.1,358.2 444.1,366.2 444.1,363.2 428.1,355.2z"/><path class="r1" d="M460.1,358.2 444.1,366.2 444.1,363.2 460.1,355.2z"/><path class="t1" d="M444.1,347.2 460.1,355.2 444.1,363.2 428.1,355.2z"/><path class="sr1" d="M444.1,347.2 428.1,355.2"/><path class="l1" d="M532.1,321.1 548.1,329.1 548.1,326.1 532.1,318.1z"/><path class="r1" d="M564.1,321.1 548.1,329.1 548.1,326.1 564.1,318.1z"/><path class="t1" d="M548.1,310.1 564.1,318.1 548.1,326.1 532.1,318.1z"/><path class="sr1" d="M548.1,310.1 532.1,318.1"/><path class="l0" d="M517.3,328.5 533.3,336.5 533.3,317.5 517.3,309.5z"/><path class="r0" d="M549.3,328.5 533.3,336.5 533.3,317.5 549.3,309.5z"/><path class="t0" d="M533.3,301.5 549.3,309.5 533.3,317.5 517.3,309.5z"/><path class="l1" d="M502.4,335.9 518.4,343.9 518.4,340.9 502.4,332.9z"/><path class="r1" d="M534.4,335.9 518.4,343.9 518.4,340.9 534.4,332.9z"/><path class="t1" d="M518.4,324.9 534.4,332.9 518.4,340.9 502.4,332.9z"/><path class="sr1" d="M518.4,324.9 502.4,332.9"/><path class="l1" d="M487.6,343.4 503.6,351.4 503.6,348.4 487.6,340.4z"/><path class="r1" d="M519.6,343.4 503.6,351.4 503.6,348.4 519.6,340.4z"/><path class="t1" d="M503.6,332.4 519.6,340.4 503.6,348.4 487.6,340.4z"/><path class="sr1" d="M503.6,332.4 487.6,340.4"/><path class="sl1" d="M503.6,332.4 519.6,340.4"/><path class="l3" d="M472.7,350.8 488.7,358.8 488.7,353.8 472.7,345.8z"/><path class="r3" d="M504.7,350.8 488.7,358.8 488.7,353.8 504.7,345.8z"/><path class="t3" d="M488.7,337.8 504.7,345.8 488.7,353.8 472.7,345.8z"/><path class="l1" d="M457.8,358.2 473.8,366.2 473.8,363.2 457.8,355.2z"/><path class="r1" d="M489.8,358.2 473.8,366.2 473.8,363.2 489.8,355.2z"/><path class="t1" d="M473.8,347.2 489.8,355.2 473.8,363.2 457.8,355.2z"/><path class="l1" d="M443,365.6 459,373.6 459,370.6 443,362.6z"/><path class="r1" d="M475,365.6 459,373.6 459,370.6 475,362.6z"/><path class="t1" d="M459,354.6 475,362.6 459,370.6 443,362.6z"/><path class="sr1" d="M459,354.6 443,362.6"/><path class="sl1" d="M459,354.6 475,362.6"/><path class="l1" d="M547.1,328.5 563.1,336.5 563.1,333.5 547.1,325.5z"/><path class="r1" d="M579.1,328.5 563.1,336.5 563.1,333.5 579.1,325.5z"/><path class="t1" d="M563.1,317.5 579.1,325.5 563.1,333.5 547.1,325.5z"/><path class="sr1" d="M563.1,317.5 547.1,325.5"/><path class="l1" d="M532.2,336 548.2,344 548.2,341 532.2,333z"/><path class="r1" d="M564.2,336 548.2,344 548.2,341 564.2,333z"/><path class="t1" d="M548.2,325 564.2,333 548.2,341 532.2,333z"/><path class="sl1" d="M548.2,325 564.2,333"/><path class="l1" d="M517.4,343.4 533.4,351.4 533.4,348.4 517.4,340.4z"/><path class="r1" d="M549.4,343.4 533.4,351.4 533.4,348.4 549.4,340.4z"/><path class="t1" d="M533.4,332.4 549.4,340.4 533.4,348.4 517.4,340.4z"/><path class="sr1" d="M533.4,332.4 517.4,340.4"/><path class="sl1" d="M533.4,332.4 549.4,340.4"/><path class="l3" d="M502.5,350.8 518.5,358.8 518.5,351.8 502.5,343.8z"/><path class="r3" d="M534.5,350.8 518.5,358.8 518.5,351.8 534.5,343.8z"/><path class="t3" d="M518.5,335.8 534.5,343.8 518.5,351.8 502.5,343.8z"/><path class="l1" d="M487.6,358.2 503.6,366.2 503.6,363.2 487.6,355.2z"/><path class="r1" d="M519.6,358.2 503.6,366.2 503.6,363.2 519.6,355.2z"/><path class="t1" d="M503.6,347.2 519.6,355.2 503.6,363.2 487.6,355.2z"/><path class="l1" d="M472.8,365.7 488.8,373.7 488.8,370.7 472.8,362.7z"/><path class="r1" d="M504.8,365.7 488.8,373.7 488.8,370.7 504.8,362.7z"/><path class="t1" d="M488.8,354.7 504.8,362.7 488.8,370.7 472.8,362.7z"/><path class="sr1" d="M488.8,354.7 472.8,362.7"/><path class="sl1" d="M488.8,354.7 504.8,362.7"/><path class="l1" d="M457.9,373.1 473.9,381.1 473.9,378.1 457.9,370.1z"/><path class="r1" d="M489.9,373.1 473.9,381.1 473.9,378.1 489.9,370.1z"/><path class="t1" d="M473.9,362.1 489.9,370.1 473.9,378.1 457.9,370.1z"/><path class="sr1" d="M473.9,362.1 457.9,370.1"/><path class="sl1" d="M473.9,362.1 489.9,370.1"/><path class="l1" d="M562,336 578,344 578,341 562,333z"/><path class="r1" d="M594,336 578,344 578,341 594,333z"/><path class="t1" d="M578,325 594,333 578,341 562,333z"/><path class="sr1" d="M578,325 562,333"/><path class="l1" d="M547.1,343.4 563.1,351.4 563.1,348.4 547.1,340.4z"/><path class="r1" d="M579.1,343.4 563.1,351.4 563.1,348.4 579.1,340.4z"/><path class="t1" d="M563.1,332.4 579.1,340.4 563.1,348.4 547.1,340.4z"/><path class="sr1" d="M563.1,332.4 547.1,340.4"/><path class="sl1" d="M563.1,332.4 579.1,340.4"/><path class="l1" d="M532.3,350.9 548.3,358.9 548.3,355.9 532.3,347.9z"/><path class="r1" d="M564.3,350.9 548.3,358.9 548.3,355.9 564.3,347.9z"/><path class="t1" d="M548.3,339.9 564.3,347.9 548.3,355.9 532.3,347.9z"/><path class="sr1" d="M548.3,339.9 532.3,347.9"/><path class="sl1" d="M548.3,339.9 564.3,347.9"/><path class="l4" d="M517.4,358.3 533.4,366.3 533.4,352.3 517.4,344.3z"/><path class="r4" d="M549.4,358.3 533.4,366.3 533.4,352.3 549.4,344.3z"/><path class="t4" d="M533.4,336.3 549.4,344.3 533.4,352.3 517.4,344.3z"/><path class="l3" d="M502.6,365.7 518.6,373.7 518.6,368.7 502.6,360.7z"/><path class="r3" d="M534.6,365.7 518.6,373.7 518.6,368.7 534.6,360.7z"/><path class="t3" d="M518.6,352.7 534.6,360.7 518.6,368.7 502.6,360.7z"/><path class="l1" d="M487.7,373.1 503.7,381.1 503.7,378.1 487.7,370.1z"/><path class="r1" d="M519.7,373.1 503.7,381.1 503.7,378.1 519.7,370.1z"/><path class="t1" d="M503.7,362.1 519.7,370.1 503.7,378.1 487.7,370.1z"/><path class="sr1" d="M503.7,362.1 487.7,370.1"/><path class="l4" d="M472.9,380.6 488.9,388.6 488.9,376.6 472.9,368.6z"/><path class="r4" d="M504.9,380.6 488.9,388.6 488.9,376.6 504.9,368.6z"/><path class="t4" d="M488.9,360.6 504.9,368.6 488.9,376.6 472.9,368.6z"/><path class="l1" d="M576.9,343.5 592.9,351.5 592.9,348.5 576.9,340.5z"/><path class="r1" d="M608.9,343.5 592.9,351.5 592.9,348.5 608.9,340.5z"/><path class="t1" d="M592.9,332.5 608.9,340.5 592.9,348.5 576.9,340.5z"/><path class="sr1" d="M592.9,332.5 576.9,340.5"/><path class="l1" d="M562.1,350.9 578.1,358.9 578.1,355.9 562.1,347.9z"/><path class="r1" d="M594.1,350.9 578.1,358.9 578.1,355.9 594.1,347.9z"/><path class="t1" d="M578.1,339.9 594.1,347.9 578.1,355.9 562.1,347.9z"/><path class="sr1" d="M578.1,339.9 562.1,347.9"/><path class="sl1" d="M578.1,339.9 594.1,347.9"/><path class="l1" d="M547.2,358.3 563.2,366.3 563.2,363.3 547.2,355.3z"/><path class="r1" d="M579.2,358.3 563.2,366.3 563.2,363.3 579.2,355.3z"/><path class="t1" d="M563.2,347.3 579.2,355.3 563.2,363.3 547.2,355.3z"/><path class="sr1" d="M563.2,347.3 547.2,355.3"/><path class="sl1" d="M563.2,347.3 579.2,355.3"/><path class="l1" d="M532.4,365.8 548.4,373.8 548.4,370.8 532.4,362.8z"/><path class="r1" d="M564.4,365.8 548.4,373.8 548.4,370.8 564.4,362.8z"/><path class="t1" d="M548.4,354.8 564.4,362.8 548.4,370.8 532.4,362.8z"/><path class="sl1" d="M548.4,354.8 564.4,362.8"/><path class="l1" d="M517.5,373.2 533.5,381.2 533.5,378.2 517.5,370.2z"/><path class="r1" d="M549.5,373.2 533.5,381.2 533.5,378.2 549.5,370.2z"/><path class="t1" d="M533.5,362.2 549.5,370.2 533.5,378.2 517.5,370.2z"/><path class="sl1" d="M533.5,362.2 549.5,370.2"/><path class="l1" d="M502.6,380.6 518.6,388.6 518.6,385.6 502.6,377.6z"/><path class="r1" d="M534.6,380.6 518.6,388.6 518.6,385.6 534.6,377.6z"/><path class="t1" d="M518.6,369.6 534.6,377.6 518.6,385.6 502.6,377.6z"/><path class="sr1" d="M518.6,369.6 502.6,377.6"/><path class="sl1" d="M518.6,369.6 534.6,377.6"/><path class="l1" d="M487.8,388 503.8,396 503.8,393 487.8,385z"/><path class="r1" d="M519.8,388 503.8,396 503.8,393 519.8,385z"/><path class="t1" d="M503.8,377 519.8,385 503.8,393 487.8,385z"/><path class="sl1" d="M503.8,377 519.8,385"/><path class="l1" d="M591.9,350.9 607.9,358.9 607.9,355.9 591.9,347.9z"/><path class="r1" d="M623.9,350.9 607.9,358.9 607.9,355.9 623.9,347.9z"/><path class="t1" d="M607.9,339.9 623.9,347.9 607.9,355.9 591.9,347.9z"/><path class="sr1" d="M607.9,339.9 591.9,347.9"/><path class="l1" d="M577,358.4 593,366.4 593,363.4 577,355.4z"/><path class="r1" d="M609,358.4 593,366.4 593,363.4 609,355.4z"/><path class="t1" d="M593,347.4 609,355.4 593,363.4 577,355.4z"/><path class="sr1" d="M593,347.4 577,355.4"/><path class="sl1" d="M593,347.4 609,355.4"/><path class="l1" d="M562.2,365.8 578.2,373.8 578.2,370.8 562.2,362.8z"/><path class="r1" d="M594.2,365.8 578.2,373.8 578.2,370.8 594.2,362.8z"/><path class="t1" d="M578.2,354.8 594.2,362.8 578.2,370.8 562.2,362.8z"/><path class="sr1" d="M578.2,354.8 562.2,362.8"/><path class="sl1" d="M578.2,354.8 594.2,362.8"/><path class="l1" d="M547.3,373.2 563.3,381.2 563.3,378.2 547.3,370.2z"/><path class="r1" d="M579.3,373.2 563.3,381.2 563.3,378.2 579.3,370.2z"/><path class="t1" d="M563.3,362.2 579.3,370.2 563.3,378.2 547.3,370.2z"/><path class="sr1" d="M563.3,362.2 547.3,370.2"/><path class="sl1" d="M563.3,362.2 579.3,370.2"/><path class="l1" d="M532.4,380.6 548.4,388.6 548.4,385.6 532.4,377.6z"/><path class="r1" d="M564.4,380.6 548.4,388.6 548.4,385.6 564.4,377.6z"/><path class="t1" d="M548.4,369.6 564.4,377.6 548.4,385.6 532.4,377.6z"/><path class="sr1" d="M548.4,369.6 532.4,377.6"/><path class="sl1" d="M548.4,369.6 564.4,377.6"/><path class="l1" d="M517.6,388.1 533.6,396.1 533.6,393.1 517.6,385.1z"/><path class="r1" d="M549.6,388.1 533.6,396.1 533.6,393.1 549.6,385.1z"/><path class="t1" d="M533.6,377.1 549.6,385.1 533.6,393.1 517.6,385.1z"/><path class="sr1" d="M533.6,377.1 517.6,385.1"/><path class="sl1" d="M533.6,377.1 549.6,385.1"/><path class="l1" d="M502.7,395.5 518.7,403.5 518.7,400.5 502.7,392.5z"/><path class="r1" d="M534.7,395.5 518.7,403.5 518.7,400.5 534.7,392.5z"/><path class="t1" d="M518.7,384.5 534.7,392.5 518.7,400.5 502.7,392.5z"/><path class="sr1" d="M518.7,384.5 502.7,392.5"/><path class="sl1" d="M518.7,384.5 534.7,392.5"/><path class="l1" d="M606.8,358.4 622.8,366.4 622.8,363.4 606.8,355.4z"/><path class="r1" d="M638.8,358.4 622.8,366.4 622.8,363.4 638.8,355.4z"/><path class="t1" d="M622.8,347.4 638.8,355.4 622.8,363.4 606.8,355.4z"/><path class="sr1" d="M622.8,347.4 606.8,355.4"/><path class="l1" d="M591.9,365.8 607.9,373.8 607.9,370.8 591.9,362.8z"/><path class="r1" d="M623.9,365.8 607.9,373.8 607.9,370.8 623.9,362.8z"/><path class="t1" d="M607.9,354.8 623.9,362.8 607.9,370.8 591.9,362.8z"/><path class="sr1" d="M607.9,354.8 591.9,362.8"/><path class="sl1" d="M607.9,354.8 623.9,362.8"/><path class="l1" d="M577.1,373.3 593.1,381.3 593.1,378.3 577.1,370.3z"/><path class="r1" d="M609.1,373.3 593.1,381.3 593.1,378.3 609.1,370.3z"/><path class="t1" d="M593.1,362.3 609.1,370.3 593.1,378.3 577.1,370.3z"/><path class="sr1" d="M593.1,362.3 577.1,370.3"/><path class="sl1" d="M593.1,362.3 609.1,370.3"/><path class="l2" d="M562.2,380.7 578.2,388.7 578.2,349.7 562.2,341.7z"/><path class="r2" d="M594.2,380.7 578.2,388.7 578.2,349.7 594.2,341.7z"/><path class="t2" d="M578.2,333.7 594.2,341.7 578.2,349.7 562.2,341.7z"/><path class="l1" d="M547.4,388.1 563.4,396.1 563.4,393.1 547.4,385.1z"/><path class="r1" d="M579.4,388.1 563.4,396.1 563.4,393.1 579.4,385.1z"/><path class="t1" d="M563.4,377.1 579.4,385.1 563.4,393.1 547.4,385.1z"/><path class="sr1" d="M563.4,377.1 547.4,385.1"/><path class="l1" d="M532.5,395.5 548.5,403.5 548.5,400.5 532.5,392.5z"/><path class="r1" d="M564.5,395.5 548.5,403.5 548.5,400.5 564.5,392.5z"/><path class="t1" d="M548.5,384.5 564.5,392.5 548.5,400.5 532.5,392.5z"/><path class="sr1" d="M548.5,384.5 532.5,392.5"/><path class="sl1" d="M548.5,384.5 564.5,392.5"/><path class="l1" d="M517.7,403 533.7,411 533.7,408 517.7,400z"/><path class="r1" d="M549.7,403 533.7,411 533.7,408 549.7,400z"/><path class="t1" d="M533.7,392 549.7,400 533.7,408 517.7,400z"/><path class="sr1" d="M533.7,392 517.7,400"/><path class="sl1" d="M533.7,392 549.7,400"/><path class="l1" d="M621.7,365.9 637.7,373.9 637.7,370.9 621.7,362.9z"/><path class="r1" d="M653.7,365.9 637.7,373.9 637.7,370.9 653.7,362.9z"/><path class="t1" d="M637.7,354.9 653.7,362.9 637.7,370.9 621.7,362.9z"/><path class="sr1" d="M637.7,354.9 621.7,362.9"/><path class="l1" d="M606.9,373.3 622.9,381.3 622.9,378.3 606.9,370.3z"/><path class="r1" d="M638.9,373.3 622.9,381.3 622.9,378.3 638.9,370.3z"/><path class="t1" d="M622.9,362.3 638.9,370.3 622.9,378.3 606.9,370.3z"/><path class="sr1" d="M622.9,362.3 606.9,370.3"/><path class="sl1" d="M622.9,362.3 638.9,370.3"/><path class="l1" d="M592,380.7 608,388.7 608,385.7 592,377.7z"/><path class="r1" d="M624,380.7 608,388.7 608,385.7 624,377.7z"/><path class="t1" d="M608,369.7 624,377.7 608,385.7 592,377.7z"/><path class="sr1" d="M608,369.7 592,377.7"/><path class="sl1" d="M608,369.7 624,377.7"/><path class="l1" d="M577.2,388.2 593.2,396.2 593.2,393.2 577.2,385.2z"/><path class="r1" d="M609.2,388.2 593.2,396.2 593.2,393.2 609.2,385.2z"/><path class="t1" d="M593.2,377.2 609.2,385.2 593.2,393.2 577.2,385.2z"/><path class="sl1" d="M593.2,377.2 609.2,385.2"/><path class="l1" d="M562.3,395.6 578.3,403.6 578.3,400.6 562.3,392.6z"/><path class="r1" d="M594.3,395.6 578.3,403.6 578.3,400.6 594.3,392.6z"/><path class="t1" d="M578.3,384.6 594.3,392.6 578.3,400.6 562.3,392.6z"/><path class="sr1" d="M578.3,384.6 562.3,392.6"/><path class="sl1" d="M578.3,384.6 594.3,392.6"/><path class="l1" d="M547.4,403 563.4,411 563.4,408 547.4,400z"/><path class="r1" d="M579.4,403 563.4,411 563.4,408 579.4,400z"/><path class="t1" d="M563.4,392 579.4,400 563.4,408 547.4,400z"/><path class="sr1" d="M563.4,392 547.4,400"/><path class="sl1" d="M563.4,392 579.4,400"/><path class="l1" d="M532.6,410.4 548.6,418.4 548.6,415.4 532.6,407.4z"/><path class="r1" d="M564.6,410.4 548.6,418.4 548.6,415.4 564.6,407.4z"/><path class="t1" d="M548.6,399.4 564.6,407.4 548.6,415.4 532.6,407.4z"/><path class="sr1" d="M548.6,399.4 532.6,407.4"/><path class="sl1" d="M548.6,399.4 564.6,407.4"/><path class="l1" d="M636.7,373.3 652.7,381.3 652.7,378.3 636.7,370.3z"/><path class="r1" d="M668.7,373.3 652.7,381.3 652.7,378.3 668.7,370.3z"/><path class="t1" d="M652.7,362.3 668.7,370.3 652.7,378.3 636.7,370.3z"/><path class="sr1" d="M652.7,362.3 636.7,370.3"/><path class="l1" d="M621.8,380.8 637.8,388.8 637.8,385.8 621.8,377.8z"/><path class="r1" d="M653.8,380.8 637.8,388.8 637.8,385.8 653.8,377.8z"/><path class="t1" d="M637.8,369.8 653.8,377.8 637.8,385.8 621.8,377.8z"/><path class="sr1" d="M637.8,369.8 621.8,377.8"/><path class="sl1" d="M637.8,369.8 653.8,377.8"/><path class="l1" d="M607,388.2 623,396.2 623,393.2 607,385.2z"/><path class="r1" d="M639,388.2 623,396.2 623,393.2 639,385.2z"/><path class="t1" d="M623,377.2 639,385.2 623,393.2 607,385.2z"/><path class="sr1" d="M623,377.2 607,385.2"/><path class="sl1" d="M623,377.2 639,385.2"/><path class="l1" d="M592.1,395.6 608.1,403.6 608.1,400.6 592.1,392.6z"/><path class="r1" d="M624.1,395.6 608.1,403.6 608.1,400.6 624.1,392.6z"/><path class="t1" d="M608.1,384.6 624.1,392.6 608.1,400.6 592.1,392.6z"/><path class="sr1" d="M608.1,384.6 592.1,392.6"/><path class="sl1" d="M608.1,384.6 624.1,392.6"/><path class="l1" d="M577.2,403 593.2,411 593.2,408 577.2,400z"/><path class="r1" d="M609.2,403 593.2,411 593.2,408 609.2,400z"/><path class="t1" d="M593.2,392 609.2,400 593.2,408 577.2,400z"/><path class="sr1" d="M593.2,392 577.2,400"/><path class="sl1" d="M593.2,392 609.2,400"/><path class="l1" d="M562.4,410.5 578.4,418.5 578.4,415.5 562.4,407.5z"/><path class="r1" d="M594.4,410.5 578.4,418.5 578.4,415.5 594.4,407.5z"/><path class="t1" d="M578.4,399.5 594.4,407.5 578.4,415.5 562.4,407.5z"/><path class="sr1" d="M578.4,399.5 562.4,407.5"/><path class="sl1" d="M578.4,399.5 594.4,407.5"/><path class="l1" d="M547.5,417.9 563.5,425.9 563.5,422.9 547.5,414.9z"/><path class="r1" d="M579.5,417.9 563.5,425.9 563.5,422.9 579.5,414.9z"/><path class="t1" d="M563.5,406.9 579.5,414.9 563.5,422.9 547.5,414.9z"/><path class="sr1" d="M563.5,406.9 547.5,414.9"/><path class="sl1" d="M563.5,406.9 579.5,414.9"/><path class="l1" d="M651.6,380.8 667.6,388.8 667.6,385.8 651.6,377.8z"/><path class="r1" d="M683.6,380.8 667.6,388.8 667.6,385.8 683.6,377.8z"/><path class="t1" d="M667.6,369.8 683.6,377.8 667.6,385.8 651.6,377.8z"/><path class="sr1" d="M667.6,369.8 651.6,377.8"/><path class="l1" d="M636.7,388.2 652.7,396.2 652.7,393.2 636.7,385.2z"/><path class="r1" d="M668.7,388.2 652.7,396.2 652.7,393.2 668.7,385.2z"/><path class="t1" d="M652.7,377.2 668.7,385.2 652.7,393.2 636.7,385.2z"/><path class="sr1" d="M652.7,377.2 636.7,385.2"/><path class="sl1" d="M652.7,377.2 668.7,385.2"/><path class="l1" d="M621.9,395.7 637.9,403.7 637.9,400.7 621.9,392.7z"/><path class="r1" d="M653.9,395.7 637.9,403.7 637.9,400.7 653.9,392.7z"/><path class="t1" d="M637.9,384.7 653.9,392.7 637.9,400.7 621.9,392.7z"/><path class="sr1" d="M637.9,384.7 621.9,392.7"/><path class="sl1" d="M637.9,384.7 653.9,392.7"/><path class="l3" d="M607,403.1 623,411.1 623,406.1 607,398.1z"/><path class="r3" d="M639,403.1 623,411.1 623,406.1 639,398.1z"/><path class="t3" d="M623,390.1 639,398.1 623,406.1 607,398.1z"/><path class="l1" d="M592.2,410.5 608.2,418.5 608.2,415.5 592.2,407.5z"/><path class="r1" d="M624.2,410.5 608.2,418.5 608.2,415.5 624.2,407.5z"/><path class="t1" d="M608.2,399.5 624.2,407.5 608.2,415.5 592.2,407.5z"/><path class="sr1" d="M608.2,399.5 592.2,407.5"/><path class="l1" d="M577.3,417.9 593.3,425.9 593.3,422.9 577.3,414.9z"/><path class="r1" d="M609.3,417.9 593.3,425.9 593.3,422.9 609.3,414.9z"/><path class="t1" d="M593.3,406.9 609.3,414.9 593.3,422.9 577.3,414.9z"/><path class="sr1" d="M593.3,406.9 577.3,414.9"/><path class="sl1" d="M593.3,406.9 609.3,414.9"/><path class="l1" d="M562.5,425.4 578.5,433.4 578.5,430.4 562.5,422.4z"/><path class="r1" d="M594.5,425.4 578.5,433.4 578.5,430.4 594.5,422.4z"/><path class="t1" d="M578.5,414.4 594.5,422.4 578.5,430.4 562.5,422.4z"/><path class="sr1" d="M578.5,414.4 562.5,422.4"/><path class="sl1" d="M578.5,414.4 594.5,422.4"/><path class="l3" d="M666.5,388.3 682.5,396.3 682.5,386.3 666.5,378.3z"/><path class="r3" d="M698.5,388.3 682.5,396.3 682.5,386.3 698.5,378.3z"/><path class="t3" d="M682.5,370.3 698.5,378.3 682.5,386.3 666.5,378.3z"/><path class="l1" d="M651.7,395.7 667.7,403.7 667.7,400.7 651.7,392.7z"/><path class="r1" d="M683.7,395.7 667.7,403.7 667.7,400.7 683.7,392.7z"/><path class="t1" d="M667.7,384.7 683.7,392.7 667.7,400.7 651.7,392.7z"/><path class="sr1" d="M667.7,384.7 651.7,392.7"/><path class="l1" d="M636.8,403.1 652.8,411.1 652.8,408.1 636.8,400.1z"/><path class="r1" d="M668.8,403.1 652.8,411.1 652.8,408.1 668.8,400.1z"/><path class="t1" d="M652.8,392.1 668.8,400.1 652.8,408.1 636.8,400.1z"/><path class="sr1" d="M652.8,392.1 636.8,400.1"/><path class="sl1" d="M652.8,392.1 668.8,400.1"/><path class="l1" d="M622,410.6 638,418.6 638,415.6 622,407.6z"/><path class="r1" d="M654,410.6 638,418.6 638,415.6 654,407.6z"/><path class="t1" d="M638,399.6 654,407.6 638,415.6 622,407.6z"/><path class="sl1" d="M638,399.6 654,407.6"/><path class="l1" d="M607.1,418 623.1,426 623.1,423 607.1,415z"/><path class="r1" d="M639.1,418 623.1,426 623.1,423 639.1,415z"/><path class="t1" d="M623.1,407 639.1,415 623.1,423 607.1,415z"/><path class="sr1" d="M623.1,407 607.1,415"/><path class="sl1" d="M623.1,407 639.1,415"/><path class="l1" d="M592.2,425.4 608.2,433.4 608.2,430.4 592.2,422.4z"/><path class="r1" d="M624.2,425.4 608.2,433.4 608.2,430.4 624.2,422.4z"/><path class="t1" d="M608.2,414.4 624.2,422.4 608.2,430.4 592.2,422.4z"/><path class="sr1" d="M608.2,414.4 592.2,422.4"/><path class="sl1" d="M608.2,414.4 624.2,422.4"/><path class="l1" d="M577.4,432.8 593.4,440.8 593.4,437.8 577.4,429.8z"/><path class="r1" d="M609.4,432.8 593.4,440.8 593.4,437.8 609.4,429.8z"/><path class="t1" d="M593.4,421.8 609.4,429.8 593.4,437.8 577.4,429.8z"/><path class="sr1" d="M593.4,421.8 577.4,429.8"/><path class="sl1" d="M593.4,421.8 609.4,429.8"/><path class="l3" d="M681.5,395.7 697.5,403.7 697.5,393.7 681.5,385.7z"/><path class="r3" d="M713.5,395.7 697.5,403.7 697.5,393.7 713.5,385.7z"/><path class="t3" d="M697.5,377.7 713.5,385.7 697.5,393.7 681.5,385.7z"/><path class="sr3" d="M697.5,377.7 681.5,385.7"/><path class="l3" d="M666.6,403.2 682.6,411.2 682.6,401.2 666.6,393.2z"/><path class="r3" d="M698.6,403.2 682.6,411.2 682.6,401.2 698.6,393.2z"/><path class="t3" d="M682.6,385.2 698.6,393.2 682.6,401.2 666.6,393.2z"/><path class="sl3" d="M682.6,385.2 698.6,393.2"/><path class="l3" d="M651.8,410.6 667.8,418.6 667.8,411.6 651.8,403.6z"/><path class="r3" d="M683.8,410.6 667.8,418.6 667.8,411.6 683.8,403.6z"/><path class="t3" d="M667.8,395.6 683.8,403.6 667.8,411.6 651.8,403.6z"/><path class="l1" d="M636.9,418 652.9,426 652.9,423 636.9,415z"/><path class="r1" d="M668.9,418 652.9,426 652.9,423 668.9,415z"/><path class="t1" d="M652.9,407 668.9,415 652.9,423 636.9,415z"/><path class="sr1" d="M652.9,407 636.9,415"/><path class="l1" d="M622,425.4 638,433.4 638,430.4 622,422.4z"/><path class="r1" d="M654,425.4 638,433.4 638,430.4 654,422.4z"/><path class="t1" d="M638,414.4 654,422.4 638,430.4 622,422.4z"/><path class="sr1" d="M638,414.4 622,422.4"/><path class="sl1" d="M638,414.4 654,422.4"/><path class="l1" d="M607.2,432.9 623.2,440.9 623.2,437.9 607.2,429.9z"/><path class="r1" d="M639.2,432.9 623.2,440.9 623.2,437.9 639.2,429.9z"/><path class="t1" d="M623.2,421.9 639.2,429.9 623.2,437.9 607.2,429.9z"/><path class="sr1" d="M623.2,421.9 607.2,429.9"/><path class="sl1" d="M623.2,421.9 639.2,429.9"/><path class="l4" d="M592.3,440.3 608.3,448.3 608.3,436.3 592.3,428.3z"/><path class="r4" d="M624.3,440.3 608.3,448.3 608.3,436.3 624.3,428.3z"/><path class="t4" d="M608.3,420.3 624.3,428.3 608.3,436.3 592.3,428.3z"/><path class="l1" d="M696.4,403.2 712.4,411.2 712.4,408.2 696.4,400.2z"/><path class="r1" d="M728.4,403.2 712.4,411.2 712.4,408.2 728.4,400.2z"/><path class="t1" d="M712.4,392.2 728.4,400.2 712.4,408.2 696.4,400.2z"/><path class="l1" d="M681.5,410.6 697.5,418.6 697.5,415.6 681.5,407.6z"/><path class="r1" d="M713.5,410.6 697.5,418.6 697.5,415.6 713.5,407.6z"/><path class="t1" d="M697.5,399.6 713.5,407.6 697.5,415.6 681.5,407.6z"/><path class="sl1" d="M697.5,399.6 713.5,407.6"/><path class="l3" d="M666.7,418.1 682.7,426.1 682.7,416.1 666.7,408.1z"/><path class="r3" d="M698.7,418.1 682.7,426.1 682.7,416.1 698.7,408.1z"/><path class="t3" d="M682.7,400.1 698.7,408.1 682.7,416.1 666.7,408.1z"/><path class="l1" d="M651.8,425.5 667.8,433.5 667.8,430.5 651.8,422.5z"/><path class="r1" d="M683.8,425.5 667.8,433.5 667.8,430.5 683.8,422.5z"/><path class="t1" d="M667.8,414.5 683.8,422.5 667.8,430.5 651.8,422.5z"/><path class="sr1" d="M667.8,414.5 651.8,422.5"/><path class="l4" d="M637,432.9 653,440.9 653,428.9 637,420.9z"/><path class="r4" d="M669,432.9 653,440.9 653,428.9 669,420.9z"/><path class="t4" d="M653,412.9 669,420.9 653,428.9 637,420.9z"/><path class="l1" d="M622.1,440.3 638.1,448.3 638.1,445.3 622.1,437.3z"/><path class="r1" d="M654.1,440.3 638.1,448.3 638.1,445.3 654.1,437.3z"/><path class="t1" d="M638.1,429.3 654.1,437.3 638.1,445.3 622.1,437.3z"/><path class="sr1" d="M638.1,429.3 622.1,437.3"/><path class="l2" d="M607.3,447.8 623.3,455.8 623.3,428.8 607.3,420.8z"/><path class="r2" d="M639.3,447.8 623.3,455.8 623.3,428.8 639.3,420.8z"/><path class="t2" d="M623.3,412.8 639.3,420.8 623.3,428.8 607.3,420.8z"/><path class="l1" d="M711.3,410.7 727.3,418.7 727.3,415.7 711.3,407.7z"/><path class="r1" d="M743.3,410.7 727.3,418.7 727.3,415.7 743.3,407.7z"/><path class="t1" d="M727.3,399.7 743.3,407.7 727.3,415.7 711.3,407.7z"/><path class="sr1" d="M727.3,399.7 711.3,407.7"/><path class="l1" d="M696.5,418.1 712.5,426.1 712.5,423.1 696.5,415.1z"/><path class="r1" d="M728.5,418.1 712.5,426.1 712.5,423.1 728.5,415.1z"/><path class="t1" d="M712.5,407.1 728.5,415.1 712.5,423.1 696.5,415.1z"/><path class="sr1" d="M712.5,407.1 696.5,415.1"/><path class="sl1" d="M712.5,407.1 728.5,415.1"/><path class="l3" d="M681.6,425.5 697.6,433.5 697.6,426.5 681.6,418.5z"/><path class="r3" d="M713.6,425.5 697.6,433.5 697.6,426.5 713.6,418.5z"/><path class="t3" d="M697.6,410.5 713.6,418.5 697.6,426.5 681.6,418.5z"/><path class="l1" d="M666.8,433 682.8,441 682.8,438 666.8,430z"/><path class="r1" d="M698.8,433 682.8,441 682.8,438 698.8,430z"/><path class="t1" d="M682.8,422 698.8,430 682.8,438 666.8,430z"/><path class="sr1" d="M682.8,422 666.8,430"/><path class="l3" d="M651.9,440.4 667.9,448.4 667.9,438.4 651.9,430.4z"/><path class="r3" d="M683.9,440.4 667.9,448.4 667.9,438.4 683.9,430.4z"/><path class="t3" d="M667.9,422.4 683.9,430.4 667.9,438.4 651.9,430.4z"/><path class="l1" d="M637,447.8 653,455.8 653,452.8 637,444.8z"/><path class="r1" d="M669,447.8 653,455.8 653,452.8 669,444.8z"/><path class="t1" d="M653,436.8 669,444.8 653,452.8 637,444.8z"/><path class="sr1" d="M653,436.8 637,444.8"/><path class="l1" d="M622.2,455.2 638.2,463.2 638.2,460.2 622.2,452.2z"/><path class="r1" d="M654.2,455.2 638.2,463.2 638.2,460.2 654.2,452.2z"/><path class="t1" d="M638.2,444.2 654.2,452.2 638.2,460.2 622.2,452.2z"/><path class="sl1" d="M638.2,444.2 654.2,452.2"/><path class="l1" d="M726.3,418.1 742.3,426.1 742.3,423.1 726.3,415.1z"/><path class="r1" d="M758.3,418.1 742.3,426.1 742.3,423.1 758.3,415.1z"/><path class="t1" d="M742.3,407.1 758.3,415.1 742.3,423.1 726.3,415.1z"/><path class="sr1" d="M742.3,407.1 726.3,415.1"/><path class="l1" d="M711.4,425.6 727.4,433.6 727.4,430.6 711.4,422.6z"/><path class="r1" d="M743.4,425.6 727.4,433.6 727.4,430.6 743.4,422.6z"/><path class="t1" d="M727.4,414.6 743.4,422.6 727.4,430.6 711.4,422.6z"/><path class="sr1" d="M727.4,414.6 711.4,422.6"/><path class="sl1" d="M727.4,414.6 743.4,422.6"/><path class="l1" d="M696.6,433 712.6,441 712.6,438 696.6,430z"/><path class="r1" d="M728.6,433 712.6,441 712.6,438 728.6,430z"/><path class="t1" d="M712.6,422 728.6,430 712.6,438 696.6,430z"/><path class="sl1" d="M712.6,422 728.6,430"/><path class="l1" d="M681.7,440.4 697.7,448.4 697.7,445.4 681.7,437.4z"/><path class="r1" d="M713.7,440.4 697.7,448.4 697.7,445.4 713.7,437.4z"/><path class="t1" d="M697.7,429.4 713.7,437.4 697.7,445.4 681.7,437.4z"/><path class="sr1" d="M697.7,429.4 681.7,437.4"/><path class="sl1" d="M697.7,429.4 713.7,437.4"/><path class="l1" d="M666.8,447.8 682.8,455.8 682.8,452.8 666.8,444.8z"/><path class="r1" d="M698.8,447.8 682.8,455.8 682.8,452.8 698.8,444.8z"/><path class="t1" d="M682.8,436.8 698.8,444.8 682.8,452.8 666.8,444.8z"/><path class="sl1" d="M682.8,436.8 698.8,444.8"/><path class="l1" d="M652,455.3 668,463.3 668,460.3 652,452.3z"/><path class="r1" d="M684,455.3 668,463.3 668,460.3 684,452.3z"/><path class="t1" d="M668,444.3 684,452.3 668,460.3 652,452.3z"/><path class="sr1" d="M668,444.3 652,452.3"/><path class="sl1" d="M668,444.3 684,452.3"/><path class="l1" d="M637.1,462.7 653.1,470.7 653.1,467.7 637.1,459.7z"/><path class="r1" d="M669.1,462.7 653.1,470.7 653.1,467.7 669.1,459.7z"/><path class="t1" d="M653.1,451.7 669.1,459.7 653.1,467.7 637.1,459.7z"/><path class="sr1" d="M653.1,451.7 637.1,459.7"/><path class="sl1" d="M653.1,451.7 669.1,459.7"/><path class="l1" d="M741.2,425.6 757.2,433.6 757.2,430.6 741.2,422.6z"/><path class="r1" d="M773.2,425.6 757.2,433.6 757.2,430.6 773.2,422.6z"/><path class="t1" d="M757.2,414.6 773.2,422.6 757.2,430.6 741.2,422.6z"/><path class="sr1" d="M757.2,414.6 741.2,422.6"/><path class="l4" d="M726.3,433 742.3,441 742.3,429 726.3,421z"/><path class="r4" d="M758.3,433 742.3,441 742.3,429 758.3,421z"/><path class="t4" d="M742.3,413 758.3,421 742.3,429 726.3,421z"/><path class="l3" d="M711.5,440.5 727.5,448.5 727.5,443.5 711.5,435.5z"/><path class="r3" d="M743.5,440.5 727.5,448.5 727.5,443.5 743.5,435.5z"/><path class="t3" d="M727.5,427.5 743.5,435.5 727.5,443.5 711.5,435.5z"/><path class="l1" d="M696.6,447.9 712.6,455.9 712.6,452.9 696.6,444.9z"/><path class="r1" d="M728.6,447.9 712.6,455.9 712.6,452.9 728.6,444.9z"/><path class="t1" d="M712.6,436.9 728.6,444.9 712.6,452.9 696.6,444.9z"/><path class="sr1" d="M712.6,436.9 696.6,444.9"/><path class="l3" d="M681.8,455.3 697.8,463.3 697.8,453.3 681.8,445.3z"/><path class="r3" d="M713.8,455.3 697.8,463.3 697.8,453.3 713.8,445.3z"/><path class="t3" d="M697.8,437.3 713.8,445.3 697.8,453.3 681.8,445.3z"/><path class="l1" d="M666.9,462.7 682.9,470.7 682.9,467.7 666.9,459.7z"/><path class="r1" d="M698.9,462.7 682.9,470.7 682.9,467.7 698.9,459.7z"/><path class="t1" d="M682.9,451.7 698.9,459.7 682.9,467.7 666.9,459.7z"/><path class="sr1" d="M682.9,451.7 666.9,459.7"/><path class="l1" d="M652.1,470.2 668.1,478.2 668.1,475.2 652.1,467.2z"/><path class="r1" d="M684.1,470.2 668.1,478.2 668.1,475.2 684.1,467.2z"/><path class="t1" d="M668.1,459.2 684.1,467.2 668.1,475.2 652.1,467.2z"/><path class="sr1" d="M668.1,459.2 652.1,467.2"/><path class="sl1" d="M668.1,459.2 684.1,467.2"/><path class="l1" d="M756.1,433.1 772.1,441.1 772.1,438.1 756.1,430.1z"/><path class="r1" d="M788.1,433.1 772.1,441.1 772.1,438.1 788.1,430.1z"/><path class="t1" d="M772.1,422.1 788.1,430.1 772.1,438.1 756.1,430.1z"/><path class="sr1" d="M772.1,422.1 756.1,430.1"/><path class="l3" d="M741.3,440.5 757.3,448.5 757.3,443.5 741.3,435.5z"/><path class="r3" d="M773.3,440.5 757.3,448.5 757.3,443.5 773.3,435.5z"/><path class="t3" d="M757.3,427.5 773.3,435.5 757.3,443.5 741.3,435.5z"/><path class="l3" d="M726.4,447.9 742.4,455.9 742.4,450.9 726.4,442.9z"/><path class="r3" d="M758.4,447.9 742.4,455.9 742.4,450.9 758.4,442.9z"/><path class="t3" d="M742.4,434.9 758.4,442.9 742.4,450.9 726.4,442.9z"/><path class="sr3" d="M742.4,434.9 726.4,442.9"/><path class="sl3" d="M742.4,434.9 758.4,442.9"/><path class="l4" d="M711.6,455.4 727.6,463.4 727.6,449.4 711.6,441.4z"/><path class="r4" d="M743.6,455.4 727.6,463.4 727.6,449.4 743.6,441.4z"/><path class="t4" d="M727.6,433.4 743.6,441.4 727.6,449.4 711.6,441.4z"/><path class="l2" d="M696.7,462.8 712.7,470.8 712.7,438.8 696.7,430.8z"/><path class="r2" d="M728.7,462.8 712.7,470.8 712.7,438.8 728.7,430.8z"/><path class="t2" d="M712.7,422.8 728.7,430.8 712.7,438.8 696.7,430.8z"/><path class="l0" d="M681.8,470.2 697.8,478.2 697.8,455.2 681.8,447.2z"/><path class="r0" d="M713.8,470.2 697.8,478.2 697.8,455.2 713.8,447.2z"/><path class="t0" d="M697.8,439.2 713.8,447.2 697.8,455.2 681.8,447.2z"/><path class="l3" d="M667,477.6 683,485.6 683,478.6 667,470.6z"/><path class="r3" d="M699,477.6 683,485.6 683,478.6 699,470.6z"/><path class="t3" d="M683,462.6 699,470.6 683,478.6 667,470.6z"/><path class="l2" d="M771.1,440.5 787.1,448.5 787.1,414.5 771.1,406.5z"/><path class="r2" d="M803.1,440.5 787.1,448.5 787.1,414.5 803.1,406.5z"/><path class="t2" d="M787.1,398.5 803.1,406.5 787.1,414.5 771.1,406.5z"/><path class="l3" d="M756.2,448 772.2,456 772.2,449 756.2,441z"/><path class="r3" d="M788.2,448 772.2,456 772.2,449 788.2,441z"/><path class="t3" d="M772.2,433 788.2,441 772.2,449 756.2,441z"/><path class="l4" d="M741.4,455.4 757.4,463.4 757.4,451.4 741.4,443.4z"/><path class="r4" d="M773.4,455.4 757.4,463.4 757.4,451.4 773.4,443.4z"/><path class="t4" d="M757.4,435.4 773.4,443.4 757.4,451.4 741.4,443.4z"/><path class="l1" d="M726.5,462.8 742.5,470.8 742.5,467.8 726.5,459.8z"/><path class="r1" d="M758.5,462.8 742.5,470.8 742.5,467.8 758.5,459.8z"/><path class="t1" d="M742.5,451.8 758.5,459.8 742.5,467.8 726.5,459.8z"/><path class="l3" d="M711.6,470.2 727.6,478.2 727.6,473.2 711.6,465.2z"/><path class="r3" d="M743.6,470.2 727.6,478.2 727.6,473.2 743.6,465.2z"/><path class="t3" d="M727.6,457.2 743.6,465.2 727.6,473.2 711.6,465.2z"/><path class="l1" d="M696.8,477.7 712.8,485.7 712.8,482.7 696.8,474.7z"/><path class="r1" d="M728.8,477.7 712.8,485.7 712.8,482.7 728.8,474.7z"/><path class="t1" d="M712.8,466.7 728.8,474.7 712.8,482.7 696.8,474.7z"/><path class="l2" d="M681.9,485.1 697.9,493.1 697.9,468.1 681.9,460.1z"/><path class="r2" d="M713.9,485.1 697.9,493.1 697.9,468.1 713.9,460.1z"/><path class="t2" d="M697.9,452.1 713.9,460.1 697.9,468.1 681.9,460.1z"/><path class="l0" d="M786,448 802,456 802,433 786,425z"/><path class="r0" d="M818,448 802,456 802,433 818,425z"/><path class="t0" d="M802,417 818,425 802,433 786,425z"/><path class="l4" d="M771.1,455.4 787.1,463.4 787.1,449.4 771.1,441.4z"/><path class="r4" d="M803.1,455.4 787.1,463.4 787.1,449.4 803.1,441.4z"/><path class="t4" d="M787.1,433.4 803.1,441.4 787.1,449.4 771.1,441.4z"/><path class="l1" d="M756.3,462.9 772.3,470.9 772.3,467.9 756.3,459.9z"/><path class="r1" d="M788.3,462.9 772.3,470.9 772.3,467.9 788.3,459.9z"/><path class="t1" d="M772.3,451.9 788.3,459.9 772.3,467.9 756.3,459.9z"/><path class="l2" d="M741.4,470.3 757.4,478.3 757.4,448.3 741.4,440.3z"/><path class="r2" d="M773.4,470.3 757.4,478.3 757.4,448.3 773.4,440.3z"/><path class="t2" d="M757.4,432.3 773.4,440.3 757.4,448.3 741.4,440.3z"/><path class="l4" d="M726.6,477.7 742.6,485.7 742.6,473.7 726.6,465.7z"/><path class="r4" d="M758.6,477.7 742.6,485.7 742.6,473.7 758.6,465.7z"/><path class="t4" d="M742.6,457.7 758.6,465.7 742.6,473.7 726.6,465.7z"/><path class="l3" d="M711.7,485.1 727.7,493.1 727.7,486.1 711.7,478.1z"/><path class="r3" d="M743.7,485.1 727.7,493.1 727.7,486.1 743.7,478.1z"/><path class="t3" d="M727.7,470.1 743.7,478.1 727.7,486.1 711.7,478.1z"/><path class="l1" d="M696.9,492.6 712.9,500.6 712.9,497.6 696.9,489.6z"/><path class="r1" d="M728.9,492.6 712.9,500.6 712.9,497.6 728.9,489.6z"/><path class="t1" d="M712.9,481.6 728.9,489.6 712.9,497.6 696.9,489.6z"/><path class="l1" d="M800.9,455.5 816.9,463.5 816.9,460.5 800.9,452.5z"/><path class="r1" d="M832.9,455.5 816.9,463.5 816.9,460.5 832.9,452.5z"/><path class="t1" d="M816.9,444.5 832.9,452.5 816.9,460.5 800.9,452.5z"/><path class="l1" d="M786.1,462.9 802.1,470.9 802.1,467.9 786.1,459.9z"/><path class="r1" d="M818.1,462.9 802.1,470.9 802.1,467.9 818.1,459.9z"/><path class="t1" d="M802.1,451.9 818.1,459.9 802.1,467.9 786.1,459.9z"/><path class="sl1" d="M802.1,451.9 818.1,459.9"/><path class="l1" d="M771.2,470.3 787.2,478.3 787.2,475.3 771.2,467.3z"/><path class="r1" d="M803.2,470.3 787.2,478.3 787.2,475.3 803.2,467.3z"/><path class="t1" d="M787.2,459.3 803.2,467.3 787.2,475.3 771.2,467.3z"/><path class="sr1" d="M787.2,459.3 771.2,467.3"/><path class="sl1" d="M787.2,459.3 803.2,467.3"/><path class="l4" d="M756.4,477.8 772.4,485.8 772.4,473.8 756.4,465.8z"/><path class="r4" d="M788.4,477.8 772.4,485.8 772.4,473.8 788.4,465.8z"/><path class="t4" d="M772.4,457.8 788.4,465.8 772.4,473.8 756.4,465.8z"/><path class="l1" d="M741.5,485.2 757.5,493.2 757.5,490.2 741.5,482.2z"/><path class="r1" d="M773.5,485.2 757.5,493.2 757.5,490.2 773.5,482.2z"/><path class="t1" d="M757.5,474.2 773.5,482.2 757.5,490.2 741.5,482.2z"/><path class="l1" d="M726.6,492.6 742.6,500.6 742.6,497.6 726.6,489.6z"/><path class="r1" d="M758.6,492.6 742.6,500.6 742.6,497.6 758.6,489.6z"/><path class="t1" d="M742.6,481.6 758.6,489.6 742.6,497.6 726.6,489.6z"/><path class="sl1" d="M742.6,481.6 758.6,489.6"/><path class="l1" d="M711.8,500 727.8,508 727.8,505 711.8,497z"/><path class="r1" d="M743.8,500 727.8,508 727.8,505 743.8,497z"/><path class="t1" d="M727.8,489 743.8,497 727.8,505 711.8,497z"/><path class="sr1" d="M727.8,489 711.8,497"/><path class="sl1" d="M727.8,489 743.8,497"/><path class="l1" d="M815.9,462.9 831.9,470.9 831.9,467.9 815.9,459.9z"/><path class="r1" d="M847.9,462.9 831.9,470.9 831.9,467.9 847.9,459.9z"/><path class="t1" d="M831.9,451.9 847.9,459.9 831.9,467.9 815.9,459.9z"/><path class="sr1" d="M831.9,451.9 815.9,459.9"/><path class="l1" d="M801,470.4 817,478.4 817,475.4 801,467.4z"/><path class="r1" d="M833,470.4 817,478.4 817,475.4 833,467.4z"/><path class="t1" d="M817,459.4 833,467.4 817,475.4 801,467.4z"/><path class="sr1" d="M817,459.4 801,467.4"/><path class="sl1" d="M817,459.4 833,467.4"/><path class="l3" d="M786.2,477.8 802.2,485.8 802.2,478.8 786.2,470.8z"/><path class="r3" d="M818.2,477.8 802.2,485.8 802.2,478.8 818.2,470.8z"/><path class="t3" d="M802.2,462.8 818.2,470.8 802.2,478.8 786.2,470.8z"/><path class="l1" d="M771.3,485.2 787.3,493.2 787.3,490.2 771.3,482.2z"/><path class="r1" d="M803.3,485.2 787.3,493.2 787.3,490.2 803.3,482.2z"/><path class="t1" d="M787.3,474.2 803.3,482.2 787.3,490.2 771.3,482.2z"/><path class="l4" d="M756.4,492.6 772.4,500.6 772.4,484.6 756.4,476.6z"/><path class="r4" d="M788.4,492.6 772.4,500.6 772.4,484.6 788.4,476.6z"/><path class="t4" d="M772.4,468.6 788.4,476.6 772.4,484.6 756.4,476.6z"/><path class="l3" d="M741.6,500.1 757.6,508.1 757.6,498.1 741.6,490.1z"/><path class="r3" d="M773.6,500.1 757.6,508.1 757.6,498.1 773.6,490.1z"/><path class="t3" d="M757.6,482.1 773.6,490.1 757.6,498.1 741.6,490.1z"/><path class="l4" d="M726.7,507.5 742.7,515.5 742.7,499.5 726.7,491.5z"/><path class="r4" d="M758.7,507.5 742.7,515.5 742.7,499.5 758.7,491.5z"/><path class="t4" d="M742.7,483.5 758.7,491.5 742.7,499.5 726.7,491.5z"/><path class="l1" d="M830.8,470.4 846.8,478.4 846.8,475.4 830.8,467.4z"/><path class="r1" d="M862.8,470.4 846.8,478.4 846.8,475.4 862.8,467.4z"/><path class="t1" d="M846.8,459.4 862.8,467.4 846.8,475.4 830.8,467.4z"/><path class="sr1" d="M846.8,459.4 830.8,467.4"/><path class="l1" d="M815.9,477.8 831.9,485.8 831.9,482.8 815.9,474.8z"/><path class="r1" d="M847.9,477.8 831.9,485.8 831.9,482.8 847.9,474.8z"/><path class="t1" d="M831.9,466.8 847.9,474.8 831.9,482.8 815.9,474.8z"/><path class="sr1" d="M831.9,466.8 815.9,474.8"/><path class="sl1" d="M831.9,466.8 847.9,474.8"/><path class="l1" d="M801.1,485.3 817.1,493.3 817.1,490.3 801.1,482.3z"/><path class="r1" d="M833.1,485.3 817.1,493.3 817.1,490.3 833.1,482.3z"/><path class="t1" d="M817.1,474.3 833.1,482.3 817.1,490.3 801.1,482.3z"/><path class="sl1" d="M817.1,474.3 833.1,482.3"/><path class="l1" d="M786.2,492.7 802.2,500.7 802.2,497.7 786.2,489.7z"/><path class="r1" d="M818.2,492.7 802.2,500.7 802.2,497.7 818.2,489.7z"/><path class="t1" d="M802.2,481.7 818.2,489.7 802.2,497.7 786.2,489.7z"/><path class="sr1" d="M802.2,481.7 786.2,489.7"/><path class="sl1" d="M802.2,481.7 818.2,489.7"/><path class="l1" d="M771.4,500.1 787.4,508.1 787.4,505.1 771.4,497.1z"/><path class="r1" d="M803.4,500.1 787.4,508.1 787.4,505.1 803.4,497.1z"/><path class="t1" d="M787.4,489.1 803.4,497.1 787.4,505.1 771.4,497.1z"/><path class="sl1" d="M787.4,489.1 803.4,497.1"/><path class="l1" d="M756.5,507.5 772.5,515.5 772.5,512.5 756.5,504.5z"/><path class="r1" d="M788.5,507.5 772.5,515.5 772.5,512.5 788.5,504.5z"/><path class="t1" d="M772.5,496.5 788.5,504.5 772.5,512.5 756.5,504.5z"/><path class="sl1" d="M772.5,496.5 788.5,504.5"/><path class="l1" d="M741.7,515 757.7,523 757.7,520 741.7,512z"/><path class="r1" d="M773.7,515 757.7,523 757.7,520 773.7,512z"/><path class="t1" d="M757.7,504 773.7,512 757.7,520 741.7,512z"/><path class="sl1" d="M757.7,504 773.7,512"/><path class="l1" d="M845.7,477.9 861.7,485.9 861.7,482.9 845.7,474.9z"/><path class="r1" d="M877.7,477.9 861.7,485.9 861.7,482.9 877.7,474.9z"/><path class="t1" d="M861.7,466.9 877.7,474.9 861.7,482.9 845.7,474.9z"/><path class="sr1" d="M861.7,466.9 845.7,474.9"/><path class="l1" d="M830.9,485.3 846.9,493.3 846.9,490.3 830.9,482.3z"/><path class="r1" d="M862.9,485.3 846.9,493.3 846.9,490.3 862.9,482.3z"/><path class="t1" d="M846.9,474.3 862.9,482.3 846.9,490.3 830.9,482.3z"/><path class="sr1" d="M846.9,474.3 830.9,482.3"/><path class="sl1" d="M846.9,474.3 862.9,482.3"/><path class="l1" d="M816,492.7 832,500.7 832,497.7 816,489.7z"/><path class="r1" d="M848,492.7 832,500.7 832,497.7 848,489.7z"/><path class="t1" d="M832,481.7 848,489.7 832,497.7 816,489.7z"/><path class="sr1" d="M832,481.7 816,489.7"/><path class="sl1" d="M832,481.7 848,489.7"/><path class="l1" d="M801.2,500.2 817.2,508.2 817.2,505.2 801.2,497.2z"/><path class="r1" d="M833.2,500.2 817.2,508.2 817.2,505.2 833.2,497.2z"/><path class="t1" d="M817.2,489.2 833.2,497.2 817.2,505.2 801.2,497.2z"/><path class="sr1" d="M817.2,489.2 801.2,497.2"/><path class="sl1" d="M817.2,489.2 833.2,497.2"/><path class="l1" d="M786.3,507.6 802.3,515.6 802.3,512.6 786.3,504.6z"/><path class="r1" d="M818.3,507.6 802.3,515.6 802.3,512.6 818.3,504.6z"/><path class="t1" d="M802.3,496.6 818.3,504.6 802.3,512.6 786.3,504.6z"/><path class="sr1" d="M802.3,496.6 786.3,504.6"/><path class="sl1" d="M802.3,496.6 818.3,504.6"/><path class="l1" d="M771.4,515 787.4,523 787.4,520 771.4,512z"/><path class="r1" d="M803.4,515 787.4,523 787.4,520 803.4,512z"/><path class="t1" d="M787.4,504 803.4,512 787.4,520 771.4,512z"/><path class="sr1" d="M787.4,504 771.4,512"/><path class="sl1" d="M787.4,504 803.4,512"/><path class="l1" d="M756.6,522.4 772.6,530.4 772.6,527.4 756.6,519.4z"/><path class="r1" d="M788.6,522.4 772.6,530.4 772.6,527.4 788.6,519.4z"/><path class="t1" d="M772.6,511.4 788.6,519.4 772.6,527.4 756.6,519.4z"/><path class="sr1" d="M772.6,511.4 756.6,519.4"/><path class="sl1" d="M772.6,511.4 788.6,519.4"/><path class="l1" d="M860.7,485.3 876.7,493.3 876.7,490.3 860.7,482.3z"/><path class="r1" d="M892.7,485.3 876.7,493.3 876.7,490.3 892.7,482.3z"/><path class="t1" d="M876.7,474.3 892.7,482.3 876.7,490.3 860.7,482.3z"/><path class="sr1" d="M876.7,474.3 860.7,482.3"/><path class="l1" d="M845.8,492.8 861.8,500.8 861.8,497.8 845.8,489.8z"/><path class="r1" d="M877.8,492.8 861.8,500.8 861.8,497.8 877.8,489.8z"/><path class="t1" d="M861.8,481.8 877.8,489.8 861.8,497.8 845.8,489.8z"/><path class="sr1" d="M861.8,481.8 845.8,489.8"/><path class="sl1" d="M861.8,481.8 877.8,489.8"/><path class="l1" d="M831,500.2 847,508.2 847,505.2 831,497.2z"/><path class="r1" d="M863,500.2 847,508.2 847,505.2 863,497.2z"/><path class="t1" d="M847,489.2 863,497.2 847,505.2 831,497.2z"/><path class="sr1" d="M847,489.2 831,497.2"/><path class="sl1" d="M847,489.2 863,497.2"/><path class="l1" d="M816.1,507.6 832.1,515.6 832.1,512.6 816.1,504.6z"/><path class="r1" d="M848.1,507.6 832.1,515.6 832.1,512.6 848.1,504.6z"/><path class="t1" d="M832.1,496.6 848.1,504.6 832.1,512.6 816.1,504.6z"/><path class="sr1" d="M832.1,496.6 816.1,504.6"/><path class="sl1" d="M832.1,496.6 848.1,504.6"/><path class="l1" d="M801.2,515 817.2,523 817.2,520 801.2,512z"/><path class="r1" d="M833.2,515 817.2,523 817.2,520 833.2,512z"/><path class="t1" d="M817.2,504 833.2,512 817.2,520 801.2,512z"/><path class="sr1" d="M817.2,504 801.2,512"/><path class="sl1" d="M817.2,504 833.2,512"/><path class="l1" d="M786.4,522.5 802.4,530.5 802.4,527.5 786.4,519.5z"/><path class="r1" d="M818.4,522.5 802.4,530.5 802.4,527.5 818.4,519.5z"/><path class="t1" d="M802.4,511.5 818.4,519.5 802.4,527.5 786.4,519.5z"/><path class="sr1" d="M802.4,511.5 786.4,519.5"/><path class="sl1" d="M802.4,511.5 818.4,519.5"/><path class="l1" d="M771.5,529.9 787.5,537.9 787.5,534.9 771.5,526.9z"/><path class="r1" d="M803.5,529.9 787.5,537.9 787.5,534.9 803.5,526.9z"/><path class="t1" d="M787.5,518.9 803.5,526.9 787.5,534.9 771.5,526.9z"/><path class="sr1" d="M787.5,518.9 771.5,526.9"/><path class="sl1" d="M787.5,518.9 803.5,526.9"/><path class="l1" d="M875.6,492.8 891.6,500.8 891.6,497.8 875.6,489.8z"/><path class="r1" d="M907.6,492.8 891.6,500.8 891.6,497.8 907.6,489.8z"/><path class="t1" d="M891.6,481.8 907.6,489.8 891.6,497.8 875.6,489.8z"/><path class="sr1" d="M891.6,481.8 875.6,489.8"/><path class="l1" d="M860.7,500.2 876.7,508.2 876.7,505.2 860.7,497.2z"/><path class="r1" d="M892.7,500.2 876.7,508.2 876.7,505.2 892.7,497.2z"/><path class="t1" d="M876.7,489.2 892.7,497.2 876.7,505.2 860.7,497.2z"/><path class="sr1" d="M876.7,489.2 860.7,497.2"/><path class="sl1" d="M876.7,489.2 892.7,497.2"/><path class="l1" d="M845.9,507.7 861.9,515.7 861.9,512.7 845.9,504.7z"/><path class="r1" d="M877.9,507.7 861.9,515.7 861.9,512.7 877.9,504.7z"/><path class="t1" d="M861.9,496.7 877.9,504.7 861.9,512.7 845.9,504.7z"/><path class="sr1" d="M861.9,496.7 845.9,504.7"/><path class="sl1" d="M861.9,496.7 877.9,504.7"/><path class="l1" d="M831,515.1 847,523.1 847,520.1 831,512.1z"/><path class="r1" d="M863,515.1 847,523.1 847,520.1 863,512.1z"/><path class="t1" d="M847,504.1 863,512.1 847,520.1 831,512.1z"/><path class="sr1" d="M847,504.1 831,512.1"/><path class="sl1" d="M847,504.1 863,512.1"/><path class="l1" d="M816.2,522.5 832.2,530.5 832.2,527.5 816.2,519.5z"/><path class="r1" d="M848.2,522.5 832.2,530.5 832.2,527.5 848.2,519.5z"/><path class="t1" d="M832.2,511.5 848.2,519.5 832.2,527.5 816.2,519.5z"/><path class="sr1" d="M832.2,511.5 816.2,519.5"/><path class="sl1" d="M832.2,511.5 848.2,519.5"/><path class="l1" d="M801.3,529.9 817.3,537.9 817.3,534.9 801.3,526.9z"/><path class="r1" d="M833.3,529.9 817.3,537.9 817.3,534.9 833.3,526.9z"/><path class="t1" d="M817.3,518.9 833.3,526.9 817.3,534.9 801.3,526.9z"/><path class="sr1" d="M817.3,518.9 801.3,526.9"/><path class="sl1" d="M817.3,518.9 833.3,526.9"/><path class="l1" d="M786.5,537.4 802.5,545.4 802.5,542.4 786.5,534.4z"/><path class="r1" d="M818.5,537.4 802.5,545.4 802.5,542.4 818.5,534.4z"/><path class="t1" d="M802.5,526.4 818.5,534.4 802.5,542.4 786.5,534.4z"/><path class="sr1" d="M802.5,526.4 786.5,534.4"/><path class="sl1" d="M802.5,526.4 818.5,534.4"/><path class="l1" d="M890.5,500.3 906.5,508.3 906.5,505.3 890.5,497.3z"/><path class="r1" d="M922.5,500.3 906.5,508.3 906.5,505.3 922.5,497.3z"/><path class="t1" d="M906.5,489.3 922.5,497.3 906.5,505.3 890.5,497.3z"/><path class="sr1" d="M906.5,489.3 890.5,497.3"/><path class="l1" d="M875.7,507.7 891.7,515.7 891.7,512.7 875.7,504.7z"/><path class="r1" d="M907.7,507.7 891.7,515.7 891.7,512.7 907.7,504.7z"/><path class="t1" d="M891.7,496.7 907.7,504.7 891.7,512.7 875.7,504.7z"/><path class="sr1" d="M891.7,496.7 875.7,504.7"/><path class="sl1" d="M891.7,496.7 907.7,504.7"/><path class="l1" d="M860.8,515.1 876.8,523.1 876.8,520.1 860.8,512.1z"/><path class="r1" d="M892.8,515.1 876.8,523.1 876.8,520.1 892.8,512.1z"/><path class="t1" d="M876.8,504.1 892.8,512.1 876.8,520.1 860.8,512.1z"/><path class="sr1" d="M876.8,504.1 860.8,512.1"/><path class="sl1" d="M876.8,504.1 892.8,512.1"/><path class="l1" d="M846,522.6 862,530.6 862,527.6 846,519.6z"/><path class="r1" d="M878,522.6 862,530.6 862,527.6 878,519.6z"/><path class="t1" d="M862,511.6 878,519.6 862,527.6 846,519.6z"/><path class="sr1" d="M862,511.6 846,519.6"/><path class="sl1" d="M862,511.6 878,519.6"/><path class="l1" d="M831.1,530 847.1,538 847.1,535 831.1,527z"/><path class="r1" d="M863.1,530 847.1,538 847.1,535 863.1,527z"/><path class="t1" d="M847.1,519 863.1,527 847.1,535 831.1,527z"/><path class="sr1" d="M847.1,519 831.1,527"/><path class="sl1" d="M847.1,519 863.1,527"/><path class="l1" d="M816.2,537.4 832.2,545.4 832.2,542.4 816.2,534.4z"/><path class="r1" d="M848.2,537.4 832.2,545.4 832.2,542.4 848.2,534.4z"/><path class="t1" d="M832.2,526.4 848.2,534.4 832.2,542.4 816.2,534.4z"/><path class="sr1" d="M832.2,526.4 816.2,534.4"/><path class="sl1" d="M832.2,526.4 848.2,534.4"/><path class="l1" d="M801.4,544.8 817.4,552.8 817.4,549.8 801.4,541.8z"/><path class="r1" d="M833.4,544.8 817.4,552.8 817.4,549.8 833.4,541.8z"/><path class="t1" d="M817.4,533.8 833.4,541.8 817.4,549.8 801.4,541.8z"/><path class="sr1" d="M817.4,533.8 801.4,541.8"/><path class="sl1" d="M817.4,533.8 833.4,541.8"/><path class="l1" d="M905.5,507.7 921.5,515.7 921.5,512.7 905.5,504.7z"/><path class="r1" d="M937.5,507.7 921.5,515.7 921.5,512.7 937.5,504.7z"/><path class="t1" d="M921.5,496.7 937.5,504.7 921.5,512.7 905.5,504.7z"/><path class="sr1" d="M921.5,496.7 905.5,504.7"/><path class="l1" d="M890.6,515.2 906.6,523.2 906.6,520.2 890.6,512.2z"/><path class="r1" d="M922.6,515.2 906.6,523.2 906.6,520.2 922.6,512.2z"/><path class="t1" d="M906.6,504.2 922.6,512.2 906.6,520.2 890.6,512.2z"/><path class="sr1" d="M906.6,504.2 890.6,512.2"/><path class="sl1" d="M906.6,504.2 922.6,512.2"/><path class="l1" d="M875.8,522.6 891.8,530.6 891.8,527.6 875.8,519.6z"/><path class="r1" d="M907.8,522.6 891.8,530.6 891.8,527.6 907.8,519.6z"/><path class="t1" d="M891.8,511.6 907.8,519.6 891.8,527.6 875.8,519.6z"/><path class="sr1" d="M891.8,511.6 875.8,519.6"/><path class="sl1" d="M891.8,511.6 907.8,519.6"/><path class="l1" d="M860.9,530 876.9,538 876.9,535 860.9,527z"/><path class="r1" d="M892.9,530 876.9,538 876.9,535 892.9,527z"/><path class="t1" d="M876.9,519 892.9,527 876.9,535 860.9,527z"/><path class="sr1" d="M876.9,519 860.9,527"/><path class="sl1" d="M876.9,519 892.9,527"/></svg>